<svg><defs><font id="iconfont" horiz-adv-x="1024"><font-face font-family="iconfont" font-weight="500" units-per-em="1024" ascent="896" descent="-128"/><glyph glyph-name="loading" unicode="" d="M1023.85 366.968c-1.317 71.287-16.305 142.391-43.943 207.39-27.564 65.036-67.558 123.967-116.655 172.662-49.06 48.73-107.26 87.263-170.248 112.67-62.952 25.517-130.656 37.69-197.52 36.228-66.864-1.389-133.472-16.414-194.34-44.124-60.941-27.601-116.143-67.668-161.767-116.838-45.624-49.134-81.67-107.406-105.432-170.431C10.073 501.536-1.296 433.868.166 366.968c1.316-66.937 15.427-133.472 41.383-194.34C67.47 111.76 105.013 56.595 151.076 11.044 197.1-34.58 251.646-70.552 310.613-94.242c58.93-23.799 122.248-35.095 184.87-33.633 62.66 1.39 124.808 15.537 181.692 41.493 56.92 25.92 108.502 63.427 151.055 109.49 42.59 45.99 76.186 100.497 98.303 159.354 13.454 35.68 22.556 72.932 27.382 110.696 1.28-.11 2.596-.146 3.875-.146 36.485 0 66.06 30.562 66.06 68.253 0 1.9-.11 3.802-.256 5.703h.256zM918.893 185.716c-24.201-56.738-59.296-108.137-102.325-150.544-43.028-42.48-93.916-75.93-148.862-97.901-54.946-22.044-113.803-32.463-172.222-31-58.419 1.352-116.18 14.622-169.042 38.896-52.899 24.165-100.826 59.15-140.344 102.069-39.556 42.845-70.74 93.587-91.138 148.277-20.509 54.69-30.16 113.292-28.771 171.455 1.353 58.163 13.746 115.595 36.375 168.164 22.556 52.57 55.202 100.205 95.195 139.504 39.958 39.3 87.227 70.227 138.151 90.48 50.925 20.326 105.396 29.867 159.574 28.405 54.178-1.39 107.552-13.782 156.393-36.302 48.877-22.446 93.148-54.91 129.633-94.647 36.557-39.738 65.255-86.715 84.009-137.237 18.827-50.559 27.637-104.591 26.248-158.367h.22a73.622 73.622 0 0 1-.22-5.703c0-35.205 25.773-64.159 58.894-67.85-6.434-37.143-17.072-73.372-31.768-107.7z" horiz-adv-x="1024"/><glyph glyph-name="angle-single-left" unicode="" d="M785.394 817.156c15.155 14.95 15.155 39.217 0 54.167l-13.72 13.516c-15.053 14.95-39.525 14.95-54.68 0l-478.49-473.781c-15.053-14.95-15.053-39.217 0-54.167l478.593-473.679c15.052-14.95 39.524-14.95 54.679 0l13.72 13.516c15.155 14.95 15.155 39.218 0 54.167l-437.533 433.13 437.431 433.13z" horiz-adv-x="1024"/><glyph glyph-name="angle-single-right" unicode="" d="M676.028 384L238.517-49.109c-15.154-14.949-15.154-39.215 0-54.164l13.72-13.515c15.154-14.95 39.625-14.95 54.676 0l478.57 473.655c15.051 14.949 15.051 39.215 0 54.164l-478.57 473.757c-15.153 14.95-39.625 14.95-54.676 0l-13.72-13.515c-15.154-14.949-15.154-39.215 0-54.164L676.028 384z" horiz-adv-x="1024"/><glyph glyph-name="angle-single-up" unicode="" d="M945.1 110.49c14.951-15.156 39.22-15.156 54.17 0l13.517 13.721c14.95 15.053 14.95 39.629 0 54.682L539.085 657.51c-14.95 15.053-39.22 15.053-54.17 0L11.213 178.893c-14.95-15.155-14.95-39.527 0-54.682L24.73 110.49c14.95-15.156 39.219-15.156 54.17 0l433.15 437.555L945.1 110.49z" horiz-adv-x="1024"/><glyph glyph-name="search" unicode="" d="M1011.175-51.381l-248.416 253.74c-4.096 4.199-8.807 7.373-13.824 9.524 53.349 71.576 85.092 160.968 85.092 257.939C834.027 705.234 647.254 896 416.962 896S0 705.234 0 469.924C0 234.513 186.67 43.746 416.962 43.746c105.675 0 202.235 40.14 275.757 106.391a45.116 45.116 0 0 1 7.987-11.264l248.313-253.74c17.1-17.51 44.953-17.51 62.156 0 17.1 17.51 17.1 45.976 0 63.486zM416.962 111.02c-193.94 0-351.223 160.662-351.223 358.903s157.283 358.903 351.223 358.903 351.224-160.661 351.224-358.903S610.903 111.02 416.962 111.02zm0 0" horiz-adv-x="1024"/><glyph glyph-name="angle-double-left" unicode="" d="M15.882 420.864C3.9 410.317-.81 396.288.112 382.669c-.921-13.824 3.789-27.853 15.77-38.4L527.984-113.46c21.607-19.354 56.627-19.354 78.439 0 21.606 19.353 21.606 50.688 0 70.041L129.853 382.67l476.672 425.984c21.606 19.251 21.606 50.893 0 70.246-21.606 19.251-56.627 19.251-78.234 0L15.881 420.864zm385.638-38.195c-1.126-13.824 3.789-27.853 15.565-38.4L929.187-113.46c21.607-19.354 56.628-19.354 78.439 0 21.606 19.353 21.401 50.688 0 70.041L531.056 382.67l476.877 425.779c21.402 19.354 21.606 50.893 0 70.144-21.811 19.354-56.934 19.354-78.54 0L417.084 420.864c-11.776-10.547-16.691-24.576-15.565-38.195z" horiz-adv-x="1024"/><glyph glyph-name="angle-single-down" unicode="" d="M512 219.955L78.848 657.51c-14.95 15.156-39.22 15.156-54.17 0l-13.516-13.72c-14.95-15.155-14.95-39.629 0-54.682L484.864 110.49c14.95-15.053 39.22-15.053 54.17 0l473.702 478.617c14.95 15.155 14.95 39.629 0 54.682l-13.517 13.721c-14.95 15.156-39.219 15.156-54.17 0L512 219.955z" horiz-adv-x="1024"/><glyph glyph-name="radio" unicode="" d="M512 896C228.147 896 0 667.853 0 384s228.147-512 512-512 512 228.147 512 512-228.147 512-512 512zm0-978.33C253.44-82.33 45.67 125.542 45.67 384S253.44 850.33 512 850.33 978.33 642.458 978.33 384c0-258.56-207.77-466.33-466.33-466.33z" horiz-adv-x="1024"/><glyph glyph-name="wechat" unicode="" d="M512 512c-35.328 0-64-28.672-64-64s28.672-64 64-64 64 28.672 64 64-28.672 64-64 64zm-256 0c-35.328 0-64-28.672-64-64s28.672-64 64-64 64 28.672 64 64-28.672 64-64 64zm512 0c-35.328 0-64-28.672-64-64s28.672-64 64-64 64 28.672 64 64-28.672 64-64 64zM512 896C229.171 896 0 695.398 0 448 0 306.586 75.06 180.736 192 98.509V-128L416.256 8.09C447.283 2.97 479.232 0 512 0c282.829 0 512 200.5 512 448 0 247.398-229.171 448-512 448zm0-832c-37.376 0-73.42 4.3-108.134 11.776l-150.63-90.522 2.047 148.378C139.776 203.059 64.103 317.85 64.103 448c0 212.07 200.601 384 448 384 247.5 0 448-171.93 448-384C960 235.93 759.397 64 512 64z" horiz-adv-x="1024"/><glyph glyph-name="radio-check" unicode="" d="M512 896C228.147 896 0 667.853 0 384s228.147-512 512-512 512 228.147 512 512-228.147 512-512 512zm0-978.33C253.44-82.33 45.67 125.542 45.67 384S253.44 850.33 512 850.33 978.33 642.458 978.33 384c0-258.56-207.77-466.33-466.33-466.33zM324.403 384a187.597 187.597 0 1 1 375.194 0 187.597 187.597 0 1 1-375.194 0z" horiz-adv-x="1024"/><glyph glyph-name="lightbulb" unicode="" d="M515.482 761.446c16.998 0 30.72 13.62 30.72 30.413v73.728c0 16.794-13.824 30.413-30.72 30.413-16.999 0-30.823-13.62-30.823-30.413v-73.625c0-16.896 13.824-30.516 30.823-30.516zM147.866 465.203H73.42c-16.999 0-30.823-13.619-30.823-30.413s13.722-30.412 30.823-30.412h74.445c16.998 0 30.822 13.619 30.822 30.412s-13.824 30.413-30.822 30.413zM771.89 653.414c7.885 0 15.77 2.97 21.709 8.91l52.634 52.12c11.98 11.88 11.98 31.13 0 43.111-11.981 11.879-31.437 11.879-43.52 0l-52.634-52.121c-11.98-11.879-11.98-31.13 0-43.11 6.042-5.94 13.926-8.91 21.811-8.91zM625.561 48.64H398.439c-16.998 0-30.822-13.62-30.822-30.413s13.722-30.413 30.822-30.413h227.124c16.998 0 30.822 13.62 30.822 30.413-.102 16.794-13.824 30.413-30.822 30.413zm-368.64 609.587c7.885 0 15.77 2.97 21.71 9.011a30.044 30.044 0 0 1 0 43.008l-52.634 52.122c-11.981 11.878-31.54 11.878-43.52 0-11.879-11.674-12.083-30.925-.307-42.803l.307-.307 52.633-52.122c5.837-5.734 13.722-8.909 21.812-8.909zM950.58 458.445h-74.445c-16.998 0-30.822-13.62-30.822-30.413s13.824-30.413 30.822-30.413h74.445c16.999 0 30.823 13.62 30.823 30.413-.103 16.794-13.824 30.413-30.823 30.413zM512 686.797c-77.926 0-151.142-30.003-206.234-84.583-55.09-54.579-85.401-127.078-85.401-204.185s30.31-149.607 85.401-204.186c55.092-54.477 128.308-84.582 206.234-84.582 77.926 0 151.142 30.003 206.234 84.582 55.09 54.58 85.401 127.079 85.401 204.186s-30.31 149.709-85.401 204.185c-55.092 54.58-128.308 84.583-206.234 84.583zm0-516.506c-126.874 0-230.195 102.195-230.195 227.84S385.126 625.87 512 625.87s230.195-102.195 230.195-227.84S638.874 170.29 512 170.29zm72.397-237.363H439.603c-16.998 0-30.822-13.62-30.822-30.413s13.721-30.413 30.822-30.413H584.5c16.999 0 30.823 13.62 30.823 30.413-.103 16.794-13.927 30.413-30.925 30.413z" horiz-adv-x="1024"/><glyph glyph-name="caret-down" unicode="" d="M512 43.93L0 724.07h1024L512 43.93z" horiz-adv-x="1024"/><glyph glyph-name="user-o" unicode="" d="M512 896C229.274 896 0 666.726 0 384s229.274-512 512-512 512 229.171 512 512c.102 282.726-229.069 512-512 512zm0-972.698C392.909-76.8 284.672-31.13 202.854 43.008 250.982 167.219 370.688 256 512 256s261.018-88.576 309.248-212.89C739.328-31.232 631.091-76.698 512-76.698zM358.4 460.698c0 84.89 68.71 153.6 153.6 153.6s153.6-68.71 153.6-153.6-68.71-153.6-153.6-153.6-153.6 68.915-153.6 153.6zM859.955 82.33c-45.26 98.816-130.15 175.206-235.315 207.564 55.398 36.557 92.16 99.328 92.16 170.804C716.902 573.85 625.152 665.6 512 665.6s-204.902-91.75-204.902-204.902c0-71.476 36.659-134.35 92.16-170.906-105.063-32.358-189.952-108.851-235.213-207.565-70.247 80.896-112.947 186.061-112.947 301.67 0 254.567 206.336 460.8 460.902 460.8s460.902-206.335 460.902-460.902c0-115.302-42.803-220.57-112.947-301.465z" horiz-adv-x="1024"/><glyph glyph-name="map" unicode="" d="M511.488 896c-205.005 0-371.814-164.864-371.814-367.514 0-62.566 6.656-88.473 44.032-173.465 36.864-83.456 297.574-457.114 308.736-472.986L499.507-128h25.19l7.066 10.035c11.06 15.872 271.77 389.53 308.634 472.986 37.478 85.094 44.032 110.899 44.032 173.465C884.326 731.136 717.619 896 511.488 896zm285.696-522.342C767.795 306.79 574.157 25.6 512.102-64c-62.054 89.6-255.795 370.79-285.081 437.658-35.226 79.974-40.141 98.816-40.141 154.828 0 177.05 145.715 320.922 325.734 320.922 179.2-.205 324.506-143.77 324.71-320.922-.102-56.115-5.017-74.854-40.14-154.828zM512 692.122c-108.237 0-196.3-87.143-196.3-194.15s88.062-194.05 196.3-194.05c108.237 0 196.403 87.143 196.403 194.15 0 106.906-88.064 194.049-196.403 194.049zm0-336.077c-79.155 0-143.565 63.693-143.565 141.926.103 78.336 64.307 141.824 143.565 141.927 79.258-.103 143.565-63.59 143.565-141.927 0-78.233-64.41-141.926-143.565-141.926z" horiz-adv-x="1024"/><glyph glyph-name="caret-right" unicode="" d="M852.07 384L171.93-128V896l680.14-512z" horiz-adv-x="1024"/><glyph glyph-name="check" unicode="" d="M1024-128H0V896h1024V-128zM64-64h896v896H64V-64zm751.616 636.928L799.744 588.8a33.997 33.997 0 0 1-48.128 0L445.952 283.136 272.896 456.192a33.997 33.997 0 0 1-48.128 0l-16.384-15.872a33.997 33.997 0 0 1 0-48.128L421.376 179.2c13.312-13.312 34.816-13.312 48.128 0l345.6 345.6c13.824 13.312 13.824 34.816.512 48.128z" horiz-adv-x="1024"/><glyph glyph-name="check-square" unicode="" d="M1024-128H0V896h1024V-128zM64-64h896v896H64V-64z" horiz-adv-x="1024"/><glyph glyph-name="close" unicode="" d="M1007.846-33.382L590.362 384l417.484 417.382c10.855 10.855 16.18 24.986 16.18 39.22s-5.428 28.364-16.18 39.219c-21.606 21.606-56.73 21.606-78.336 0L512.026 462.336 94.643 879.821c-21.709 21.606-56.73 21.606-78.438 0-21.607-21.709-21.607-56.73 0-78.439L433.69 384 16.205-33.382c-21.607-21.607-21.607-56.73 0-78.336s56.73-21.607 78.336 0l417.485 417.382L929.51-111.821C940.365-122.675 954.496-128 968.73-128a55.701 55.701 0 0 1 39.219 16.18c21.504 21.708 21.504 56.729-.103 78.438z" horiz-adv-x="1024"/><glyph glyph-name="single-down" unicode="" d="M515.891 260.608L1024 472.166l-35.533 35.226-482.201-192.614h-2.15L35.635 507.392 0 472.166l493.056-211.558h22.835z" horiz-adv-x="1024"/><glyph glyph-name="delete" unicode="" d="M985.907 747.418H38.4c-20.89 0-38.4-16.282-38.4-36.967 0-20.07 16.794-36.966 38.4-36.966h78.131V-35.123c0-51.303 43.11-92.775 96.256-92.775h598.016c52.531 0 96.256 41.575 95.642 92.775v708.608h78.848c19.865 0 36.25 14.336 38.707 32.358v9.421c-2.458 17.818-18.227 32.154-38.093 32.154zM829.747-35.226c0-10.342-8.806-18.841-19.558-18.841H212.787c-10.752 0-19.558 8.397-19.558 18.841v708.608h636.416V-35.226zM410.112 38.81c20.89 0 38.4 16.896 38.4 36.966v482.816c0 20.07-17.51 36.966-38.4 36.966s-38.4-16.179-38.4-36.966V75.776c0-20.173 16.896-36.966 38.4-36.966zm227.635 0c21.504 0 39.015 16.896 38.4 36.966v482.816c0 20.07-17.51 36.966-38.4 36.966s-38.4-16.179-38.4-36.966V75.776c0-20.173 16.896-36.966 38.4-36.966zm-202.65 783.257h153.498c21.504 0 39.015 16.896 39.015 36.967S610.816 896 589.312 896H435.098c-20.89 0-38.4-16.896-38.4-36.966s16.793-36.967 38.4-36.967z" horiz-adv-x="1024"/><glyph glyph-name="calendar" unicode="" d="M310.58 895.693H204.287V676.864h106.291v218.829zm515.788 0H720.077V676.864h106.291v218.829zm32.973-76.698v-74.342h88.064V541.798H76.493v202.957h88.064v74.24H0v-946.79h1024v946.79H859.34zm88.166-872.448H76.493V486.81h871.014V-53.453zM683.11 818.995H340.992v-74.342H683.11v74.342zm-73.83-438.17H428.646v-55.09H609.28v55.09zm257.126 0H685.773v-55.09h180.633v55.09zM352.154 248.73H171.622v-55.092h180.532v55.092zm0 132.096H171.622v-55.092h180.532v55.092zM609.28 248.73H428.646v-55.092H609.28v55.092zm257.126 0H685.773v-55.092h180.633v55.092zM352.154 116.736H171.622V61.645h180.532v55.091zm257.126 0H428.646V61.645H609.28v55.091zm257.126 0H685.773V61.645h180.633v55.091z" horiz-adv-x="1024"/><glyph glyph-name="reflash" unicode="" d="M860.074 759.207h53.652c21.707 0 39.42 18.533 39.42 40.24 0 21.808-17.61 40.239-39.42 40.239H743.042c-21.706 0-39.624-18.533-39.624-40.24V628.763c0-21.81 17.61-39.42 39.317-39.42s39.318 17.61 39.318 39.42v93.789c101.878-81.503 163.107-206.11 163.107-338.5 0-238.876-194.336-433.212-433.211-433.212-21.707 0-39.42-17.61-39.42-39.42 0-21.707 17.61-39.42 39.42-39.42 282.288 0 511.949 229.66 511.949 511.949 0 143.55-60.82 279.421-163.824 375.258zm-557.82-593.553c-21.706 0-39.317-17.611-39.317-39.42V29.475c-114.881 80.479-184.2 211.64-184.2 354.576 0 238.876 194.336 433.211 433.212 433.211 21.706 0 39.42 17.611 39.42 39.42 0 21.707-17.714 39.318-39.42 39.318C229.66 896 0 666.34 0 384.051 0 232.002 66.451 91.216 178.67-4.723h-47.406c-21.707 0-39.42-17.61-39.42-39.317s17.61-39.318 39.42-39.318h170.683c21.707 0 39.625 17.304 39.625 39.01v170.582c0 21.809-17.61 39.42-39.317 39.42z" horiz-adv-x="1024"/><glyph glyph-name="edit" unicode="" d="M960 511.795V-.102c0-35.124-34.714-64.41-69.837-64.41H127.181c-35.123 0-63.59 28.467-63.59 63.59V762.47c0 35.124 29.286 69.223 64.409 69.223h512v64H128c-70.246 0-128-62.976-128-133.223V-.82C0-71.065 56.934-128 127.18-128h762.983C960.41-128 1024-70.246 1024 0v511.795h-64zM291.533 349.696L153.907 71.168c-11.571-31.334 13.517-59.392 44.851-44.851l278.426 137.625c11.98 2.356 23.654 6.964 32.973 16.282l494.592 494.797c24.78 24.883 24.78 65.126 0 89.907L892.314 877.363c-24.884 24.883-65.127 24.883-89.908 0L307.814 382.566c-9.318-9.216-13.926-20.89-16.281-32.87zm533.299 460.186c12.39 12.39 32.563 12.39 44.954 0l67.481-67.482c12.39-12.39 12.39-32.563 0-44.954l-67.481-67.481-110.797 114.073 65.843 65.844zM711.68 696.627l113.152-111.616-359.629-359.833-21.709 21.708-68.198 68.301-22.528 22.528L711.68 696.627zM409.19 191.283L237.26 87.143c-15.666-7.271-29.695 7.782-22.425 22.425L318.874 281.6l90.316-90.317z" horiz-adv-x="1024"/><glyph glyph-name="angle-double-right" unicode="" d="M417.587-42.598L894.157 384 417.485 810.496c-21.607 19.251-21.607 50.995 0 70.349 21.606 19.251 56.627 19.251 78.233-.103l512.41-458.547c11.98-10.547 16.691-24.576 15.77-38.195.921-13.824-3.79-27.853-15.77-38.4L496.026-112.742c-21.607-19.354-56.628-19.354-78.439 0-21.606 19.456-21.606 50.79 0 70.144zm-401.203 0L492.954 384 16.077 810.291c-21.3 19.354-21.504 50.893 0 70.144 21.811 19.456 56.934 19.456 78.54 0l512.308-458.24C618.7 411.648 623.616 397.62 622.49 384c1.126-13.824-3.79-27.853-15.565-38.4L94.822-112.742c-21.606-19.354-56.627-19.354-78.438 0-21.504 19.456-21.3 50.79 0 70.144z" horiz-adv-x="1024"/><glyph glyph-name="navicon" unicode="" d="M970.547 896H53.453C23.859 896 0 872.243 0 843.162c0-29.184 23.86-52.839 53.453-52.839h917.094c29.594 0 53.453 23.655 53.453 52.839-.102 29.184-23.86 52.838-53.453 52.838zm0-459.162H53.453C23.859 436.838 0 413.184 0 384s23.86-52.838 53.453-52.838h917.094c29.594 0 53.453 23.654 53.453 52.838-.102 29.184-23.86 52.838-53.453 52.838zm0-459.161H53.453C23.859-22.323 0-45.978 0-75.162S23.86-128 53.453-128h917.094c29.594 0 53.453 23.654 53.453 52.838-.102 29.184-23.86 52.839-53.453 52.839z" horiz-adv-x="1024"/><glyph glyph-name="angle-double-down" unicode="" d="M473.415-112.126c10.542-11.975 24.563-16.683 38.176-15.762 13.817-.921 27.838 3.787 38.38 15.762l457.495 511.841c19.344 21.596 19.344 56.599 0 78.399-19.344 21.595-50.662 21.595-70.006 0L511.59 1.787 85.825 478.217c-19.242 21.594-50.867 21.594-70.211 0-19.241-21.596-19.241-56.6 0-78.195l457.802-512.148zm38.176 385.442c13.817-1.126 27.838 3.787 38.38 15.557l457.495 511.841c19.344 21.596 19.344 56.599 0 78.399-19.344 21.595-50.662 21.39-70.006 0L511.59 402.786 86.13 879.42c-19.343 21.39-50.866 21.595-70.108 0-19.343-21.8-19.343-56.906 0-78.501l457.495-512.046c10.44-11.77 24.461-16.683 38.074-15.557z" horiz-adv-x="1024"/><glyph glyph-name="lock" unicode="" d="M883.302 499.61H275.866v95.744c0 130.457 109.977 236.748 245.145 236.748 135.27 0 245.248-106.393 245.248-237.056 0-17.715 14.746-31.948 33.075-31.948s33.076 14.233 33.076 31.948C832.512 761.036 692.736 896 521.114 896c-83.15 0-161.383-31.232-220.263-88.064s-91.136-132.198-91.136-212.582V499.61h-69.837c-40.652 0-73.113-31.437-73.113-70.452V-56.32c0-39.22 32.665-71.68 73.113-71.68H883.2c40.653 0 74.035 32.358 74.035 71.68v485.478c.103 39.015-33.28 70.452-73.933 70.452zm.512-563.815H140.39c-4.096 0-7.372 3.175-7.372 7.168v485.581c0 3.891 3.276 7.168 7.372 7.168h743.22c4.096 0 7.372-3.174 7.372-7.168v-485.58h.205c0-3.994-3.379-7.169-7.373-7.169zM506.061 333.926c-37.479 0-67.687-29.184-67.687-65.433 0-23.86 13.21-44.749 33.076-56.218V85.402c0-17.613 14.848-31.95 33.075-31.95 18.227 0 33.075 14.337 33.075 31.95v125.337c21.504 10.855 36.147 32.666 36.147 57.856 0 36.147-30.208 65.331-67.686 65.331z" horiz-adv-x="1024"/><glyph glyph-name="angle-double-up" unicode="" d="M549.765 879.625c-10.542 11.974-24.563 16.682-38.174 15.76-13.817.922-27.838-3.786-38.38-15.76L15.736 367.805c-19.343-21.595-19.343-56.597 0-78.396 19.343-21.595 50.66-21.595 70.003 0l425.853 476.307 425.75-476.41c19.24-21.594 50.864-21.594 70.207 0 19.24 21.595 19.24 56.597 0 78.191L549.765 879.625zM511.59 494.199c-13.817 1.125-27.838-3.787-38.38-15.557L15.736-33.178c-19.343-21.595-19.343-56.597 0-78.396 19.343-21.594 50.66-21.39 70.003 0l425.853 476.308 425.442-476.615c19.343-21.39 50.865-21.594 70.106 0 19.343 21.8 19.343 56.903 0 78.498L549.662 478.642c-10.439 11.77-24.46 16.682-38.071 15.557z" horiz-adv-x="1024"/><glyph glyph-name="question" unicode="" d="M652.902 664.78c-33.792 33.793-78.848 48.846-135.27 48.846-63.898 0-108.954-18.74-146.534-60.11-30.004-33.791-48.845-86.425-48.845-146.534h52.633c0 45.056 11.264 86.426 33.792 112.64 26.317 33.792 60.11 48.845 108.954 48.845 41.37 0 75.162-11.264 97.69-33.792 22.528-26.317 33.792-56.32 33.792-93.9 0-26.317-11.264-56.32-30.004-78.849l-41.37-41.37c-45.055-37.58-71.372-71.372-82.636-97.689-7.475-18.739-15.053-45.056-15.053-71.373V225.28h52.634v26.317c0 22.528 7.475 45.056 18.739 67.584 7.475 15.053 22.528 33.792 45.056 52.633 37.58 30.004 63.898 56.32 71.373 67.584 22.528 30.004 33.792 60.11 33.792 101.376 0 52.634-14.95 94.004-48.743 124.007zM464.998 101.377a47.002 47.002 0 1 1 94.004 0 47.002 47.002 0 1 1-94.004 0zM983.757 583.27c-25.805 60.928-62.669 115.712-109.67 162.714-47.002 47.002-101.786 83.968-162.714 109.67C648.192 882.484 581.12 896 512 896s-136.192-13.517-199.27-40.243c-60.928-25.805-115.712-62.669-162.714-109.67S66.048 644.3 40.346 583.372C13.516 520.192 0 453.12 0 384s13.517-136.192 40.243-199.27c25.805-60.928 62.669-115.712 109.67-162.714C196.916-24.986 251.7-61.952 312.628-87.654 375.808-114.484 442.88-128 512-128s136.192 13.517 199.27 40.243c60.928 25.805 115.712 62.669 162.714 109.67 47.002 47.002 83.968 101.786 109.67 162.714C1010.484 247.808 1024 314.88 1024 384s-13.517 136.192-40.243 199.27zM512-62.77C265.626-62.771 65.229 137.626 65.229 384S265.626 830.771 512 830.771 958.771 630.374 958.771 384 758.374-62.771 512-62.771z" horiz-adv-x="1024"/><glyph glyph-name="info-shape" unicode="" d="M512-128c282.317 0 512 229.683 512 512S794.317 896 512 896 0 666.317 0 384s229.683-512 512-512zm60.928 258.56c0-33.69-27.238-60.928-60.928-60.928s-60.928 27.238-60.928 60.928v347.546c0 33.69 27.238 60.928 60.928 60.928s60.928-27.239 60.928-60.928V130.56zM512 722.125c37.888 0 68.608-30.72 68.608-68.608s-30.72-68.608-68.608-68.608-68.608 30.72-68.608 68.608 30.72 68.608 68.608 68.608z" horiz-adv-x="1024"/><glyph glyph-name="success" unicode="" d="M818.483 599.45c-.41.512-.921.921-1.433 1.433-15.36 14.643-39.732 14.029-54.375-1.433L432.333 256.205 260.915 433.97c-.41.512-.921.922-1.433 1.434-15.36 14.643-39.732 14.029-54.375-1.434-15.462-16.281-15.462-41.779 0-58.06l195.891-202.855c.922-1.536 1.844-3.072 2.97-4.506 1.638-1.74 3.482-3.276 5.427-4.608 17.715-12.595 42.291-8.499 54.887 9.216l355.123 368.538c15.053 16.384 14.643 41.78-.922 57.754zM512 896C229.683 896 0 666.317 0 384s229.683-512 512-512 512 229.683 512 512-229.683 512-512 512zm0-950.58C270.131-54.58 73.42 142.235 73.42 384c0 241.869 196.711 438.58 438.58 438.58 241.766 0 438.58-196.711 438.58-438.58S753.765-54.58 512-54.58z" horiz-adv-x="1024"/><glyph glyph-name="danger-shape" unicode="" d="M983.462 583.364c-25.797 61.012-62.65 115.677-109.74 162.767s-101.755 83.943-162.767 109.74C647.895 882.59 580.843 896 511.745 896s-136.152-13.615-199.314-40.231c-61.012-25.797-115.677-62.65-162.767-109.74S65.72 644.274 39.924 583.262C15.048 524.399 1.638 462.057 0 397.87v-27.537c1.638-64.186 15.15-126.631 40.026-185.596 25.797-61.012 62.65-115.677 109.74-162.767S251.521-61.973 312.533-87.77C375.695-114.487 442.747-128 511.846-128c69.1 0 136.152 13.615 199.313 40.231 61.013 25.797 115.678 62.65 162.768 109.74s83.942 101.755 109.74 162.767c26.616 63.162 40.026 130.214 40.026 199.313 0 69.1-13.41 136.151-40.231 199.313zM725.798 163.957c-14.23-14.23-37.57-14.23-51.799 0l-166.862 166.76-166.76-166.862c-14.228-14.23-37.569-14.23-51.798 0-14.23 14.23-14.23 37.57 0 51.799l166.76 166.76-166.862 166.861c-14.23 14.23-14.23 37.57 0 51.8 14.229 14.228 37.57 14.228 51.799 0l166.76-166.76 166.656 166.76c14.23 14.228 37.57 14.228 51.8 0 14.228-14.23 14.228-37.57 0-51.8l-166.35-166.76 166.656-166.759c14.23-14.127 14.23-37.57 0-51.799z" horiz-adv-x="1024"/><glyph glyph-name="success-shape" unicode="" d="M511.898 896C233.63 896 6.552 672.915 0 396.286v-24.572C6.552 95.085 233.63-128 511.795-128c282.26 0 512 229.637 512 512 0 282.26-229.637 512-511.897 512zM409.313 163.884c-1.945 1.331-3.788 2.867-5.426 4.607-1.126 1.433-2.047 2.97-2.969 4.505L204.964 375.912c-15.46 16.278-15.46 41.77 0 58.05 14.64 15.459 39.007 16.073 54.363 1.433.512-.512 1.024-.922 1.434-1.434l171.383-177.73L762.42 599.406c14.64 15.459 39.007 16.073 54.364 1.433.512-.512 1.024-.922 1.433-1.433 15.562-15.972 15.971-41.362.922-57.743L464.086 173.098c-12.49-17.711-37.06-21.807-54.773-9.214z" horiz-adv-x="1024"/><glyph glyph-name="warning-shape" unicode="" d="M512 896C229.683 896 0 666.317 0 384s229.683-512 512-512 512 229.683 512 512-229.683 512-512 512zm-60.928-258.56c0 33.69 27.238 60.928 60.928 60.928s60.928-27.238 60.928-60.928V289.894c0-33.69-27.238-60.928-60.928-60.928s-60.928 27.239-60.928 60.928V637.44zM512 45.875c-37.888 0-68.608 30.72-68.608 68.608s30.72 68.608 68.608 68.608 68.608-30.72 68.608-68.608S549.888 45.875 512 45.875z" horiz-adv-x="1024"/><glyph glyph-name="wushuju" unicode="" d="M1003.725 128.205H890.47c6.964 11.98 10.957 26.01 10.957 40.857V763.29c0 21.708-8.704 42.496-24.064 57.958-15.462 15.36-36.25 23.86-57.958 23.86h-491.52c-21.709 0-42.496-8.602-57.959-23.86-15.462-15.36-24.064-36.147-24.064-57.958v-20.583h-61.44c-21.708 0-42.496-8.601-57.958-23.859-15.36-15.36-24.064-36.147-24.064-57.958V66.56c0-14.336 3.686-28.467 10.957-40.858H20.48C9.318 25.702 0 16.486 0 5.222 0-.205 2.048-5.428 6.042-9.216c3.788-3.789 9.113-6.042 14.438-6.042h515.686l49.87-49.868c7.68-7.68 18.124-11.981 28.876-11.981 10.957 0 21.3 4.3 28.877 11.98 13.619 13.62 15.667 34.202 6.246 49.87H757.76c11.162 0 20.48 9.215 20.48 20.48 0 11.366-9.216 20.48-20.48 20.48H746.7c6.964 11.98 10.958 26.009 10.958 40.857v20.685h245.76c11.366 0 20.48 9.216 20.48 20.48.307 11.366-8.807 20.48-20.173 20.48zM716.902 66.867c0-22.835-18.227-41.062-40.857-41.062h-65.127L542.413 94.31c-10.343 10.445-25.498 14.439-39.629 10.65l-19.354 19.354c45.261 60.21 36.148 145.1-20.787 194.355-56.832 49.254-142.336 46.182-195.379-7.27-52.94-53.249-55.91-138.24-6.758-195.175 49.152-56.73 133.836-65.946 194.048-21.197l19.353-19.353c-3.789-14.132.205-29.287 10.65-39.63l10.547-10.546H184.218c-22.324 0-40.858 18.432-40.858 41.062v594.944c0 22.016 17.613 39.936 39.629 39.936h494.49c21.81 0 39.628-17.818 39.628-39.936V66.662h-.205zM441.14 137.728c-39.936-39.936-104.755-39.936-144.896 0-39.936 39.936-39.936 104.755 0 144.896 39.936 39.936 104.755 39.936 144.896 0 40.141-40.038 40.141-104.96 0-144.896zm419.226 31.437c0-22.528-18.227-40.858-40.858-40.96h-61.645V660.89c0 21.708-8.704 42.496-24.064 57.958-15.462 15.36-36.25 23.86-57.958 23.86H286.822v20.48c0 22.527 18.228 40.857 40.858 40.96h492.032c22.528 0 40.858-18.228 40.858-40.96V169.061h-.205zm-614.503 430.08h225.28c11.264 0 20.48 9.216 20.48 20.48s-9.216 20.48-20.48 20.48h-225.28c-11.264 0-20.48-9.216-20.48-20.48 0-5.427 2.048-10.65 6.042-14.439 3.789-3.788 8.909-6.041 14.438-6.041zm327.885-61.44H245.76c-11.264 0-20.378-9.216-20.378-20.48 0-5.427 2.048-10.65 5.837-14.439 3.789-3.788 9.114-6.041 14.439-6.041h327.987c11.264 0 20.377 9.216 20.377 20.48.103 11.469-9.113 20.48-20.275 20.48zM389.325 435.507H245.862c-11.264 0-20.48-9.216-20.48-20.48 0-5.427 2.048-10.65 6.042-14.438 3.789-3.789 9.114-6.042 14.438-6.042h143.463c11.264 0 20.48 9.216 20.48 20.48s-9.216 20.48-20.48 20.48z" horiz-adv-x="1024"/><glyph glyph-name="wenjianjia" unicode="" d="M945.46 527.155v143.77H441.343c-11.674 0-22.426 6.041-28.98 15.872L296.859 861.9H0V-93.8l109.67 620.954h835.79zm-780.391-81.817L72.704-93.798h858.931L1024 445.338H165.069z" horiz-adv-x="1024"/><glyph glyph-name="biaoqian" unicode="" d="M1004.442 359.22L618.598 731.75c-13.516 13.108-32.358 24.474-54.988 33.895-23.348 9.523-44.032 13.824-62.874 13.824H379.392c18.842 0 40.346-4.403 62.874-13.824 23.347-9.523 41.472-20.07 54.988-33.895l385.741-372.633c13.517-13.824 19.968-29.594 19.968-47.821 0-18.227-6.349-33.894-19.968-47.104L630.272 18.739C641.229 8.192 650.957.512 658.944-4.608c7.885-5.12 18.842-6.963 31.642-6.963 18.841 0 35.02 6.246 49.356 19.353l264.5 256.922c13.516 13.107 19.558 28.877 19.558 47.104s-6.451 33.178-19.558 47.411zm-187.29-48.231c0 18.227-6.451 33.894-19.558 47.82L411.75 731.75c-13.516 13.108-32.358 24.474-54.988 33.895-23.348 9.523-44.032 13.824-62.874 13.824H69.325c-18.842 0-35.021-6.963-48.64-20.07C7.168 746.393 0 730.623 0 712.396v-216.78c0-18.227 4.506-39.014 14.336-60.928 9.83-22.63 20.685-40.14 35.02-53.248L435.099 7.782c13.516-13.107 29.798-18.944 48.64-18.944s35.02 6.247 49.356 18.944l264.5 256.205c12.39 13.107 19.558 28.775 19.558 47.002zM221.184 564.634c-13.517-13.108-29.798-19.354-48.64-19.354s-35.02 6.246-48.64 19.354c-13.517 13.107-19.968 28.876-19.968 47.104s6.349 33.894 19.968 47.104c13.517 13.107 29.798 19.353 48.64 19.353s35.02-6.246 48.64-19.353c13.517-13.108 19.558-28.877 19.558-47.104 1.127-18.637-6.041-33.997-19.558-47.104z" horiz-adv-x="1024"/><glyph glyph-name="operation-tips" unicode="" d="M42.7 748.134h938.702c23.552 0 42.7 20.378 42.7 45.568 0 25.088-19.148 45.466-42.7 45.466H42.7C19.149 839.066 0 818.688 0 793.6c0-25.293 19.149-45.466 42.7-45.466zm938.6-318.668H42.7C19.15 429.466 0 409.088 0 384c0-25.293 19.149-45.466 42.7-45.466h938.702c23.552 0 42.7 20.378 42.7 45.466-.102 25.088-19.25 45.466-42.803 45.466zm0-409.6H42.7C19.15 19.866 0-.41 0-25.6c0-25.293 19.149-45.466 42.7-45.466h938.702c23.552 0 42.7 20.378 42.7 45.466-.102 25.19-19.25 45.466-42.803 45.466z" horiz-adv-x="1024"/><glyph glyph-name="shangxiajiantou" unicode="" d="M512 896l421.478-423.526H90.522L512 896zm0-1024L90.522 295.526h842.854L512-128z" horiz-adv-x="1024"/><glyph glyph-name="shangchuan" unicode="" d="M714.138 869.069V572.62H1024zm0-296.448v296.448H0V-101.07h1024v673.69H714.138zm-35.021-343.347l-15.155-1.23H555.93v99.738h44.441L512 427.93l-88.371-100.045h44.032v-99.738H360.14l-15.155 1.229c-43.11 7.066-75.981 43.725-75.981 87.86 0 35.02 20.685 65.33 50.688 79.871-3.277 7.373-5.12 15.463-5.12 24.064 0 32.768 27.238 59.392 60.723 59.392 17.92 0 33.997-7.577 45.056-19.558 23.552 46.797 72.704 78.95 129.536 78.95 78.848 0 142.95-61.85 144.282-138.752 35.43-12.185 60.723-45.26 60.723-84.07.102-44.135-32.768-80.794-75.776-87.86z" horiz-adv-x="1024"/><glyph glyph-name="operation-group-copy" unicode="" d="M512 131.584c-70.656 0-128-58.06-128-129.74s57.344-129.742 128-129.742S640-69.837 640 1.843c0 71.578-57.344 129.741-128 129.741zm0 380.006c-70.656 0-128-58.163-128-129.843s57.344-129.74 128-129.74 128 58.06 128 129.74S582.656 511.59 512 511.59zm0 124.826c70.656 0 128 58.163 128 129.74C640 837.837 582.656 896 512 896s-128-58.163-128-129.74c0-71.68 57.344-129.844 128-129.844z" horiz-adv-x="1024"/><glyph glyph-name="setting" unicode="" d="M1014.377 480.256c-2.663 33.178-24.679 60.826-57.754 72.09l-7.475 2.048c-29.082 6.041-51.302 23.45-68.506 54.067-15.564 25.907-19.25 57.651-10.854 84.685 12.083 29.798 3.891 65.433-21.606 91.34-47.002 44.647-103.22 79.053-165.274 101.684-28.98 12.595-64.614 6.041-93.9-24.474-33.895-41.472-105.78-48.947-157.594 4.096-16.794 17.306-37.274 26.42-59.29 26.42-8.806 0-17.818-1.537-30.72-6.042-63.283-26.727-116.122-58.778-158.72-95.95-28.672-20.172-41.062-56.626-30.72-90.111 9.114-35.021 5.837-65.843-10.342-94.925-12.698-24.166-38.4-43.11-73.421-52.838l-9.011-3.584c-21.812-11.162-38.81-31.437-46.695-55.706l-1.945-7.475C3.382 448.717.002 416.358.002 384c-.102-32.358 3.175-64.614 9.626-96.358 2.867-33.485 25.702-61.952 57.754-72.09l7.577-2.048c29.082-5.94 51.303-23.347 68.506-54.17 15.36-25.395 19.353-56.217 10.854-84.684-11.98-29.799-3.789-65.434 21.607-91.239 47.206-44.953 103.936-79.565 173.67-104.755l21.914-1.74c22.118 0 44.544 9.42 63.59 29.286 33.894 41.574 105.677 48.844 157.594-4.199 16.793-17.203 37.273-26.317 59.187-26.317 10.547.103 20.992 2.253 30.822 6.144 63.18 26.624 116.02 58.778 158.618 95.95 28.57 19.353 41.267 57.958 30.617 90.009-9.113 34.918-5.836 65.843 10.343 94.822 12.697 24.167 38.502 43.11 73.523 52.839l9.011 3.686c22.22 11.674 38.912 31.642 46.592 55.603l1.946 7.578c7.168 36.864 10.547 69.12 10.547 101.683.102 33.28-3.482 68.71-9.523 96.256zm-60.11-186.573c-2.354-7.782-7.27-14.643-13.925-19.353l-3.175-1.434c-48.23-13.21-87.552-43.008-107.622-81.306-23.45-42.086-28.775-88.78-15.155-140.697 2.662-8.397-.308-18.842-9.626-25.395-40.55-35.226-88.166-64.103-145.51-88.167-6.247-2.15-11.367-5.53-23.45 6.861-35.84 36.66-79.77 56.934-123.802 56.934-49.152 0-94.208-20.684-123.699-56.934-4.505-4.3-10.547-6.758-16.793-6.963l-6.759.102c-54.58 19.149-104.55 49.562-146.74 89.088-7.986 8.09-11.16 18.33-7.27 28.058 14.439 45.773 8.705 95.437-15.36 135.27-25.395 45.466-61.85 73.319-108.646 82.944-10.24 3.482-16.281 10.547-17.613 23.655-5.734 27.443-8.908 58.47-8.908 87.654.204 30.413 3.379 60.723 9.625 90.522 2.355 7.782 7.27 14.643 13.927 19.353l3.174 1.434c48.23 13.21 87.654 43.008 107.622 81.305 23.45 42.087 28.775 88.679 15.258 140.596-2.765 9.625 1.024 19.968 9.523 25.395 40.55 35.225 88.167 64 145.51 88.166 4.916 1.639 6.554 10.547 23.553-6.86 75.98-77.722 191.59-68.506 247.398 0A26.258 26.258 0 0 0 653.622 832l6.86-1.536c54.068-19.251 103.527-49.46 145.51-88.678 7.988-8.09 11.162-18.33 7.271-28.16-14.438-45.261-8.806-94.413 15.36-135.27 25.498-45.466 61.952-73.32 108.647-82.945 5.939-1.945 16.076-7.27 17.612-23.654 5.735-27.239 8.807-58.368 8.807-87.552 0-28.672-2.97-57.242-9.421-90.522zm-443.8 270.643c-17.511 0-34.92-2.662-51.61-7.782-94.106-28.672-147.15-128.205-118.477-222.31l57.549 17.612c-3.482 11.367-5.325 23.143-5.223 35.021.103 65.024 52.941 117.555 117.863 117.453s117.555-52.94 117.453-117.862c0-13.312-2.253-26.522-6.656-39.015-21.607-61.337-88.884-93.593-150.221-71.987l-20.173-56.73c19.046-6.758 39.014-10.137 59.494-10.137 98.1 0 177.767 79.77 177.767 177.766s-79.667 177.971-177.767 177.971z" horiz-adv-x="1024"/><glyph glyph-name="camera" unicode="" d="M964.403 647.885H826.368c-32.666 0-58.88 26.419-58.88 59.494v89.703c0 33.075-26.214 59.494-58.88 59.494H314.675c-32.665 0-58.88-26.42-58.88-59.494v-89.703c0-33.075-26.112-59.494-58.88-59.494H58.88c-32.666 0-58.88-26.42-58.88-59.597v-617.37c0-33.075 26.214-59.494 58.88-59.494h906.24c32.666 0 58.88 26.42 58.88 59.494v617.37c-.717 33.178-26.931 59.597-59.597 59.597zM509.44 93.696c-116.326 0-210.74 95.54-210.74 213.197s94.516 213.094 210.74 213.094 210.74-95.539 210.74-213.197S625.765 93.696 509.44 93.696z" horiz-adv-x="1024"/><glyph glyph-name="tuozhuai" unicode="" d="M706.867 690.995c57.856 0 101.274 43.93 101.274 102.503C812.954 852.07 764.723 896 706.867 896s-101.273-43.93-101.273-102.502c-.103-58.573 48.128-102.503 101.273-102.503zm0-204.493c-57.856 0-101.273-43.93-101.273-102.502 0-58.573 48.23-102.502 101.273-102.502 57.856 0 101.274 43.93 101.274 102.502 4.813 58.573-43.418 102.502-101.274 102.502zm0-409.497c-57.856 0-101.273-43.93-101.273-102.503C605.594-84.07 653.824-128 706.867-128c57.856 0 101.274 43.93 101.274 102.502 4.813 58.573-43.418 102.503-101.274 102.503zM316.826 896c-53.044 0-101.274-43.93-101.274-102.502 0-58.573 48.23-102.503 101.274-102.503 57.856 0 101.273 43.93 101.273 102.503C423.014 852.07 374.784 896 316.826 896zm0-409.498c-57.856 0-101.274-43.93-101.274-102.502 0-58.573 48.23-102.502 101.274-102.502 57.856 0 101.273 43.93 101.273 102.502 4.915 58.573-43.315 102.502-101.273 102.502zm0-409.497c-57.856 0-101.274-43.93-101.274-102.503C215.552-84.07 263.782-128 316.826-128c57.856 0 101.273 43.93 101.273 102.502 4.915 58.573-43.315 102.503-101.273 102.503z" horiz-adv-x="1024"/><glyph glyph-name="daily_type2" unicode="" d="M611.11 164.74H298.45a36.95 36.95 0 1 1 0-73.107h312.66a37.008 37.008 0 1 1 0 73.106zM284.239 611.39h227.39a62.817 62.817 0 0 1 56.847 14.098v28.424a62.532 62.532 0 0 1-56.847 14.326h-227.39a62.532 62.532 0 0 1-56.848-14.099v-28.423a62.532 62.532 0 0 1 56.848-14.326zm568.475 284.238h-682.17A160.253 160.253 0 0 1 0 749.473V18.584a160.253 160.253 0 0 1 170.543-146.212h682.17a160.253 160.253 0 0 1 170.542 146.155v730.946a160.253 160.253 0 0 1-170.542 146.155zm85.271-877.1a75.437 75.437 0 0 0-85.271-73.05h-682.17A75.437 75.437 0 0 0 85.27 18.584v730.889a75.437 75.437 0 0 0 85.272 73.106h682.17a75.437 75.437 0 0 0 85.271-73.106V18.584zm-213.178 422.32H298.449a36.95 36.95 0 1 1 0-73.106h426.357a36.95 36.95 0 1 1 0 73.106z" horiz-adv-x="1024"/><glyph glyph-name="Duties" unicode="" d="M887.5 827.7h-751C61.132 827.7 0 766.565 0 691.2V76.8C0 1.434 61.133-59.7 136.5-59.7h750.898c75.367 0 136.5 61.134 136.5 136.5v614.4c.102 75.366-61.03 136.5-136.397 136.5zm68.2-750.9c0-37.683-30.516-68.3-68.302-68.3H136.5c-37.683 0-68.3 30.617-68.3 68.3v614.4c0 37.683 30.515 68.3 68.3 68.3h751.002c37.683 0 68.3-30.617 68.3-68.3V76.8zM853.3 554.7H648.5c-18.74 0-34.1-15.36-34.1-34.098 0-18.74 15.36-34.1 34.1-34.1h204.8c18.738 0 34.098 15.36 34.098 34.1.103 18.739-15.257 34.099-34.099 34.099zm0-136.6H648.5c-18.74 0-34.1-15.36-34.1-34.1 0-18.74 15.36-34.1 34.1-34.1h204.8c18.738 0 34.098 15.36 34.098 34.1.103 18.74-15.257 34.1-34.099 34.1zm0-136.5H648.5c-18.74 0-34.1-15.36-34.1-34.1 0-18.738 15.36-34.098 34.1-34.098h204.8c18.738 0 34.098 15.36 34.098 34.099.103 18.739-15.257 34.099-34.099 34.099zm-488.654 50.278c76.596 0 138.957 62.362 138.957 138.855 0 76.595-62.361 138.957-138.957 138.957-76.595 0-138.956-62.362-138.956-138.957.102-76.493 62.361-138.855 138.956-138.855zm107.11 3.175c-29.593-23.347-66.457-37.888-107.11-37.888-40.652 0-77.414 14.54-107.11 37.888-56.218-35.738-95.232-98.509-100.66-171.315 19.662-2.663 54.682-5.53 104.654-5.53h206.233c49.971 0 84.992 2.867 104.653 5.53-5.325 72.806-44.442 135.577-100.66 171.315z" horiz-adv-x="1024"/><glyph glyph-name="zip" unicode="" d="M663.654 342.835h74.343V308.43h-74.343zm0 137.523h74.343v-34.406h-74.343zm0 68.813h74.343v-34.406h-74.343zm86.63-330.137c-11.57 7.782-27.34 4.608-35.02-6.964-1.946-2.867-3.174-6.041-3.789-9.318l-17.305-68.3c-3.277-17.102 3.686-35.329 19.046-45.569 20.48-13.721 48.333-8.192 61.952 12.39 6.144 9.217 8.397 19.866 7.168 30.004l-22.835 76.39c-1.741 4.403-4.915 8.397-9.216 11.367zm6.042-105.268c-6.758-10.137-20.48-12.8-30.515-6.041-7.168 4.813-10.547 13.005-9.625 20.992l7.065 38.093c.205 2.252.922 4.505 2.253 6.45 4.198 6.247 12.595 7.886 18.842 3.79 2.97-1.946 4.915-4.813 5.632-7.988l9.83-39.321c.82-5.427-.205-11.06-3.482-15.975zm-92.672 297.882h74.343v-34.406h-74.343zm74.343-34.406h74.342v-34.407h-74.342zm0-68.813h74.342v-34.407h-74.342zm0 137.625h74.342v-34.406h-74.342zm-74.343-171.93h74.343v-34.406h-74.343zm74.343 240.64h74.342v-34.406h-74.342zm0 137.524h74.342v-34.406h-74.342zm-74.343-34.406h74.343v-34.407h-74.343zm0 68.812h74.343v-34.406h-74.343zm74.343-103.116h74.342V549.17h-74.342zM259.789 896V691.2h50.483v153.6h605.184V-76.8H310.272V76.8h-50.483V-128h706.15V896zm166.605-439.603h-11.367v-56.423h11.367c7.68 0 13.516 2.253 17.408 6.759 3.89 4.608 5.939 11.776 5.939 21.401 0 9.626-2.048 16.692-5.94 21.3-3.993 4.608-9.83 6.963-17.407 6.963zM562.484 640H58.06V128h504.422v512zM251.596 456.397L177.562 317.44h73.932v-49.254h-142.95v43.417l72.704 138.957h-67.789v49.254h138.138v-43.417zm78.848-188.211H270.13v231.628h60.314V268.186zm161.997 106.496c-12.903-12.084-31.744-18.228-56.32-18.228h-21.095v-88.268h-60.313v231.628h90.521c22.938-.41 39.834-7.27 50.688-20.48 10.855-13.21 16.18-30.208 16.077-50.892-.102-23.757-6.656-41.677-19.558-53.76z" horiz-adv-x="1024"/><glyph glyph-name="renyuan-shixin" unicode="" d="M965.94 102.707c-24.782 58.675-60.314 111.309-105.575 156.57-45.261 45.26-97.895 80.793-156.57 105.574-.205.103-.307.103-.512.205a516.096 516.096 0 0 1-28.672 11.06c13.927 9.727 27.136 20.684 39.424 32.972 53.863 53.862 83.559 125.542 83.559 201.728s-29.696 147.763-83.559 201.728C660.07 866.304 588.493 896 512.307 896s-147.865-29.696-201.728-83.558c-53.862-53.863-83.558-125.543-83.558-201.728s29.696-147.866 83.558-201.728c12.186-12.186 25.395-23.143 39.22-32.87-9.729-3.38-19.457-7.066-29.082-11.162-.205-.103-.307-.103-.512-.205-58.675-24.781-111.309-60.314-156.57-105.575-45.26-45.158-80.793-97.792-105.574-156.467C32.358 41.882 19.354-22.63 19.354-89.088c0-21.504 17.408-38.912 38.912-38.912h907.57c21.505 0 38.913 17.408 38.913 38.912-.103 66.458-13.107 130.97-38.81 191.795z" horiz-adv-x="1024"/><glyph glyph-name="bumen-shixin" unicode="" d="M926.515 213.3v146.329H536.371v97.485h146.33v341.401H341.299V457.114h146.33v-97.485H97.485v-146.33H0V-30.515h243.814v243.814H146.33v97.587h341.299V213.3h-97.485V-30.515h243.814v243.814h-97.587v97.587h341.3V213.3h-97.485V-30.515H1024v243.814z" horiz-adv-x="1024"/><glyph glyph-name="bumen-xuxin" unicode="" d="M1000.14 214.016h-73.625v145.715H536.371V456.5h96.256v-.102h50.893v341.401H342.118V456.5h46.695v.103h98.816v-96.768H97.485V214.016H0V-29.798h243.814v243.814H146.33v96.87h341.299v-96.87h-97.485V-29.798h243.712v243.814h-97.485v96.87h341.3v-96.87h-97.485V-29.798H1024v243.814h-23.86zM390.86 748.851h242.177v.103h1.638V505.139H390.861v243.712zm-196.812-583.68h.922V19.046H48.845v146.125h145.203zm390.042 0h.921V19.046H438.99v146.125h145.1zM975.155 19.15H829.03v146.02h145.101v.103h.922V19.149z" horiz-adv-x="1024"/><glyph glyph-name="renyuan-xiankuang" unicode="" d="M965.94 102.707c-24.782 58.675-60.314 111.309-105.575 156.57-45.261 45.26-97.895 80.793-156.57 105.574-9.625 4.096-19.353 7.783-29.184 11.264 13.927 9.728 27.136 20.685 39.424 32.973 53.863 53.862 83.559 125.542 83.559 201.728s-29.696 147.763-83.559 201.728C660.07 866.304 588.493 896 512.307 896s-147.865-29.696-201.728-83.558c-53.862-53.863-83.558-125.543-83.558-201.728s29.696-147.866 83.558-201.728c12.186-12.186 25.395-23.143 39.22-32.87-9.933-3.482-19.866-7.271-29.594-11.367-58.675-24.781-111.309-60.314-156.57-105.575-45.26-45.158-80.793-97.792-105.574-156.467C32.358 41.882 19.354-22.63 19.354-89.088c0-21.504 17.408-38.912 38.912-38.912s38.912 17.408 38.912 38.912c0 225.792 181.248 410.01 405.913 414.822 3.072-.102 6.144-.204 9.216-.204s6.042.102 9.114.204c224.46-5.017 405.504-189.132 405.504-414.822 0-21.504 17.408-38.912 38.912-38.912s38.912 17.408 38.912 38.912c-.103 66.458-13.107 130.97-38.81 191.795zM520.396 403.456c-2.765 0-5.632.102-8.397.102-2.662 0-5.325-.102-7.987-.102-110.592 4.403-199.168 95.642-199.168 207.258 0 114.483 93.081 207.462 207.462 207.462S719.77 725.094 719.77 610.714c0-111.616-88.679-202.957-199.373-207.258z" horiz-adv-x="1024"/><glyph glyph-name="biaoqian-xiankuang" unicode="" d="M1004.646 359.424L621.773 729.088c-13.415 13.005-32.154 24.269-54.58 33.587-23.142 9.421-43.724 13.722-62.361 13.722h-120.32c18.74 0 40.038-4.403 62.362-13.722 23.142-9.42 41.164-19.865 54.579-33.587l382.669-369.664c13.414-13.722 19.763-29.389 19.763-47.411 0-18.125-6.247-33.587-19.763-46.695L633.344 21.708c10.854-10.444 20.48-18.124 28.467-23.142 7.783-5.12 18.74-6.86 31.437-6.86 18.74 0 34.714 6.246 48.947 19.25l262.451 254.874c13.415 13.005 19.354 28.672 19.354 46.695s-6.349 32.87-19.354 46.899zM783.667 251.392c17.715 18.74 27.136 41.574 27.136 66.15 0 25.293-9.113 47.719-27.033 66.765l-.512.615-351.335 339.456c-15.053 14.643-35.43 27.34-60.62 37.785l-.205.103c-24.884 10.137-47.821 15.052-70.042 15.052H97.076c-25.498 0-48.948-9.625-67.79-27.75C10.138 731.136 0 707.891 0 682.291V485.274c0-22.221 5.325-45.466 15.974-69.12 11.367-26.112 23.962-44.954 39.63-59.392L405.81 17.51C424.14-.307 446.975-9.318 473.701-9.318c25.396 0 48.128 8.704 67.482 25.804l.614.512 240.948 233.37.921 1.024zm-49.152 47.309L495.411 67.072c-6.656-5.734-13.21-8.192-21.811-8.192-8.909 0-14.95 2.253-20.48 7.578L102.605 406.016l-.717.717c-8.602 7.782-16.077 19.558-23.552 36.761l-.205.41c-6.553 14.643-10.035 28.98-10.035 41.37V682.29c0 6.963 2.56 12.595 8.397 18.125 6.246 6.042 12.595 8.704 20.582 8.704h204.083c13.21 0 27.648-3.277 44.135-10.035 16.896-7.066 30.515-15.258 39.321-23.757L734.618 337.1c5.632-6.144 7.987-12.083 7.987-19.559 0-4.403-.922-11.059-8.09-18.841zM227.533 656.69c-13.517 13.005-29.594 19.251-48.333 19.251s-34.816-6.246-48.23-19.148c-13.517-13.108-19.764-28.672-19.764-46.695 0-18.125 6.452-33.69 19.764-46.694 13.516-13.005 29.593-19.251 48.23-19.251s34.816 6.246 48.23 19.25c13.415 13.006 20.48 28.263 19.456 46.695 0 18.023-5.939 33.587-19.353 46.592z" horiz-adv-x="1024"/><glyph glyph-name="xinjianyingyong" unicode="" d="M772.813 632.934h-69.837v69.94h-53.453v-69.94h-69.939v-53.452h69.837v-69.837h53.453v69.837h69.836v53.452zM456.09 404.89c-10.65 10.65-27.853 10.65-38.503 0l-115.61-115.508c-10.649-10.65-10.649-27.852 0-38.502l115.61-115.507c10.65-10.65 27.853-10.65 38.503 0L571.7 250.88c10.649 10.65 10.649 27.853 0 38.502L456.09 404.89zm-19.047-248.832L322.97 269.926l114.073 113.972 114.074-113.972-114.074-113.868zM234.086 97.28H68.71c-16.588 0-30.105-13.414-30.105-30.003V-97.894c0-16.59 13.414-30.004 30.105-30.004h165.376c16.59 0 30.106 13.415 30.106 30.004v165.17c-.102 16.487-13.517 30.004-30.106 30.004zm0-195.277H68.71V67.277h165.376V-97.997zm0 465.613H68.71c-16.588 0-30.105-13.414-30.105-30.003V172.442c0-16.59 13.414-30.004 30.105-30.004h165.376c16.59 0 30.106 13.415 30.106 30.004V337.51c-.102 16.59-13.517 30.106-30.106 30.106zm0-195.277H68.71V337.51h165.376V172.34zM504.627 97.28H339.251c-16.589 0-30.105-13.414-30.105-30.003V-97.894c0-16.59 13.414-30.004 30.105-30.004h165.376c16.589 0 30.106 13.415 30.106 30.004v165.17c0 16.487-13.517 30.004-30.106 30.004zm0-195.277H339.251V67.277h165.376V-97.997zM223.847 896h-69.325V550.912h69.324v276.07h681.472V-1.024H708.403v-69.018h276.89V896H223.846z" horiz-adv-x="1024"/><glyph glyph-name="xinjianbiaodan" unicode="" d="M472.678 272.384h-118.17v131.277H29.492V124.109H354.51v118.579h88.678V64.717H354.51V-24.27h-88.68v88.986H29.491V-128h236.34v74.138h88.678V-128h206.745V64.82h-88.576v207.564zm-147.66-118.58H59.085v220.263h265.933V153.805zm-88.679-177.97v-74.138H59.085V35.123h177.254v-59.29zm295.424 59.29V-98.305h-147.66V35.123h147.66zm246.067 592.69h-71.168v71.27h-54.476v-71.27h-71.168v-54.476h71.168V502.17h54.476v71.168h71.168v54.476zM218.317 896H147.66V544.358h70.656v281.293h694.579V-18.227H712.192v-70.349h282.214V896h-776.09z" horiz-adv-x="1024"/><glyph glyph-name="xitongmoxing" unicode="" d="M507.7 602.785c-112.31 0-203.326-94.701-203.326-211.618 0-116.918 91.016-211.619 203.326-211.619 112.31 0 203.326 94.701 203.326 211.619 0 116.815-91.016 211.618-203.326 211.618zm0-358.226c-77.604 0-140.772 65.728-140.772 146.505S430.096 537.57 507.7 537.57s140.772-65.727 140.772-146.505S585.304 244.56 507.7 244.56zm502.581 261.375v.205c-.102.41-.205.716-.307 1.126 0 .102-.102.307-.102.41-.103.409-.205.819-.41 1.126 0 .102-.102.307-.102.41-.103.409-.205.716-.41 1.023-.102.205-.102.307-.205.512-.102.307-.204.614-.41.921l-.306.615c-.103.204-.205.41-.307.716a3.065 3.065 0 0 1-.41.82c-.102.102-.205.306-.205.409-.204.307-.307.614-.512 1.024 0 .102-.102.102-.102.204-.205.41-.512.82-.717 1.126-1.433 2.15-3.07 4.198-4.914 5.938l-.102.103-.922.921a.8.8 0 0 0-.41.41 4.37 4.37 0 0 1-.716.614c-.307.205-.512.41-.819.614-.102.103-.307.205-.41.308-.409.307-.716.511-1.125.819 0 0-.103 0-.103.102-1.74 1.126-3.48 2.048-5.324 2.764-.41.205-.819.307-1.228.41-.103 0-.205.102-.205.102l-.921.307c-.205.103-.307.103-.512.205s-.512.102-.717.205c-.307.102-.512.102-.819.204-.102 0-.307.103-.41.103-.409.102-.716.102-1.126.205h-.204c-2.048.307-4.096.41-6.143.307h-.103c-.819 0-1.638-.103-2.457-.205-.819.102-1.74.102-2.56.102-67.262 0-121.83 56.719-121.83 126.849 0 24.98 6.859 48.732 19.656 69.106 0 .102.103.102.103.205.409.614.716 1.228 1.023 1.842.205.308.307.615.512.922.307.614.512 1.228.82 1.843.204.41.306.819.511 1.228.205.41.307.922.41 1.433.204.512.41 1.127.512 1.639.102.307.102.511.204.819.205.716.41 1.535.512 2.354v.205c.307 2.048.512 3.993.41 6.04v.308c0 .921-.103 1.842-.205 2.764-.102.512-.205 1.024-.205 1.638-.102.512-.102 1.024-.205 1.433-.102.717-.307 1.536-.511 2.253-.103.307-.103.511-.205.819-.205.716-.512 1.33-.717 2.047l-.307.922c-.205.512-.512 1.023-.717 1.535-.204.41-.41.922-.614 1.331-.205.307-.41.615-.614 1.024-.307.614-.717 1.229-1.024 1.74-.102.205-.307.41-.41.615-.511.716-.92 1.33-1.433 2.047-.102.205-.307.308-.41.41-.614.717-1.126 1.33-1.74 1.945l-.102.102c-58.766 58.05-129.715 101.459-207.523 125.927h-.103c-.512.103-.921.307-1.433.41h-.103c-1.433.41-2.969.614-4.402.819h-.409c-.512 0-1.229.102-1.843.102H649.7a31.449 31.449 0 0 1-11.057-2.354c-.102 0-.102-.103-.204-.103-.307-.102-.615-.307-.82-.41-.204-.102-.306-.204-.511-.204-.205-.103-.41-.205-.512-.307-.307-.103-.512-.307-.82-.41-.102 0-.102-.102-.204-.102a30.737 30.737 0 0 1-9.214-7.883c-1.638-2.048-2.97-4.3-4.095-6.757C602.299 833.139 559.606 804.37 512 804.37c-47.709 0-90.299 28.769-110.263 72.895-1.126 2.559-2.56 4.811-4.197 6.961-2.867 3.584-6.45 6.45-10.34 8.498-.103 0-.205.102-.308.102-.307.103-.512.307-.819.41-.205.102-.41.205-.512.307-.204.102-.41.205-.614.205-.307.102-.614.204-.819.307-.102 0-.205.102-.307.102-.41.103-.82.307-1.126.41-2.765.819-5.529 1.33-8.498 1.433h-1.945a30.257 30.257 0 0 1-7.78-1.33c-77.195-24.163-147.632-67.06-205.784-124.904l-.307-.307c-.512-.512-.921-1.024-1.33-1.433-.308-.308-.513-.615-.82-.922-.41-.512-.819-1.024-1.126-1.536-.205-.307-.512-.716-.717-1.023l-.921-1.536c-.205-.41-.512-.819-.717-1.229-.205-.41-.41-.921-.614-1.433-.205-.512-.512-1.024-.717-1.433-.204-.41-.307-.922-.512-1.331-.204-.512-.41-1.024-.511-1.638a7.541 7.541 0 0 0-.41-1.434c-.102-.511-.307-1.023-.41-1.638a48.976 48.976 0 0 1-.307-1.638c-.102-.512-.204-.921-.204-1.433-.103-.614-.103-1.229-.103-1.843 0-.41-.102-.819-.102-1.228v-3.072c0-.716.102-1.33.205-2.047 0-.41.102-.717.102-1.126.102-.615.205-1.23.41-1.843l.307-1.229c.102-.512.307-1.126.512-1.638s.307-.921.511-1.433c.205-.41.41-.922.615-1.331.204-.512.41-1.126.716-1.638l.615-1.229c.307-.512.614-1.126.921-1.638.102-.102.102-.205.205-.307 13.207-20.68 20.271-44.842 20.271-70.232 0-70.028-54.568-126.849-121.832-126.849-1.228 0-2.354-.102-3.48-.204-1.127.204-2.355.307-3.584.41H42.18c-.41 0-.819-.103-1.228-.103h-.41c-.41 0-.716-.103-1.024-.103-.204 0-.409-.102-.511-.102-.308 0-.615-.102-.922-.205-.205 0-.512-.102-.716-.102-.205-.103-.512-.103-.717-.205-.307-.102-.614-.102-.82-.205a.782.782 0 0 1-.511-.204l-.921-.308c-.103 0-.308-.102-.41-.102-.307-.102-.717-.205-1.024-.41-.102 0-.205-.102-.307-.102-.41-.102-.717-.307-1.126-.41-.102 0-.205-.102-.307-.102-.41-.204-.717-.307-1.024-.512-.102-.102-.205-.102-.307-.204a4.782 4.782 0 0 0-1.024-.512c-.102-.103-.205-.103-.41-.205-.307-.205-.614-.41-.92-.512-.103-.102-.308-.205-.41-.307-.308-.205-.512-.307-.82-.512-.204-.102-.307-.205-.511-.41s-.41-.307-.717-.511c-.205-.205-.41-.308-.614-.512-.205-.103-.41-.307-.512-.41-.205-.205-.41-.41-.717-.614l-.41-.41-.716-.716-.307-.307c-.205-.308-.512-.512-.717-.82l-.307-.307c-.205-.307-.512-.614-.717-.819l-.307-.307c-.205-.307-.41-.614-.716-.921a1.422 1.422 0 0 1-.308-.41c-.204-.307-.41-.614-.614-.819-.102-.102-.205-.307-.307-.512-.205-.307-.307-.512-.512-.819-.102-.204-.205-.41-.41-.614a5.748 5.748 0 0 0-.409-.717c-.102-.307-.307-.511-.41-.819-.102-.204-.204-.307-.307-.512-.204-.307-.307-.614-.511-1.023-.103-.103-.103-.205-.205-.41-.205-.41-.307-.819-.512-1.228 0-.103 0-.103-.102-.205-.205-.512-.308-.922-.512-1.433v-.103c-.205-.512-.308-1.024-.512-1.536-.103-.511-.307-1.023-.41-1.638v-.102c-.102-.307-.102-.512-.205-.819C5.324 469.999.921 433.961 0 397.412v-27.028c.921-36.55 5.324-72.588 13.207-107.704.102-.307.102-.512.205-.819v-.102c.102-.512.204-1.024.41-1.638.102-.512.306-1.024.511-1.536v-.102c.205-.512.307-.922.512-1.434 0-.102.102-.102.102-.204.103-.41.308-.82.512-1.229.103-.102.103-.205.205-.41.205-.307.307-.614.512-1.023.102-.205.205-.41.307-.512.102-.307.307-.512.41-.82.102-.204.307-.409.41-.716l.306-.614c.205-.307.307-.512.512-.82.103-.102.205-.306.307-.409.205-.307.41-.614.615-.819l.307-.307c.204-.307.41-.614.716-.921.103-.103.205-.205.205-.307.205-.308.512-.615.717-.922l.307-.307c.205-.307.512-.512.819-.819l.307-.307.717-.717c.102-.102.307-.205.41-.41.204-.204.511-.409.716-.614.205-.102.307-.307.512-.41.205-.204.41-.306.614-.511.205-.205.41-.307.614-.512.205-.102.41-.307.512-.41.205-.204.512-.307.82-.511.102-.103.306-.205.409-.307.307-.205.614-.41.921-.512.103-.103.205-.103.41-.205.307-.205.614-.41 1.024-.512.102-.102.204-.102.307-.205.307-.205.716-.307 1.024-.512.102-.102.204-.102.307-.204.307-.205.716-.308 1.023-.41.103 0 .205-.102.41-.102.307-.103.717-.205 1.024-.41.102-.102.307-.102.41-.205l.92-.307c.205-.102.41-.102.615-.204.307-.103.512-.103.819-.205.205-.103.512-.103.717-.205.204-.102.41-.102.716-.102.307-.103.615-.103.922-.205.204 0 .307-.103.512-.103.41-.102.716-.102 1.126-.102h.41c.409 0 .818-.102 1.228-.102h3.174c1.126.102 2.354.204 3.48.41 1.127-.103 2.355-.206 3.481-.206 67.264 0 121.832-56.82 121.832-126.848 0-25.287-7.166-49.551-20.271-70.13-.102-.102-.102-.204-.205-.307-.307-.512-.614-1.126-.921-1.74-.205-.41-.41-.717-.615-1.126-.307-.512-.511-1.127-.716-1.639a7.109 7.109 0 0 1-.512-1.33c-.205-.512-.307-1.024-.512-1.434-.205-.512-.307-1.024-.512-1.638l-.307-1.228c-.102-.615-.307-1.229-.41-1.843-.102-.41-.102-.717-.204-1.126-.103-.717-.205-1.331-.205-2.048V23.01c0-.614-.102-1.331 0-1.945 0-.41 0-.82.102-1.229 0-.614.103-1.229.103-1.843 0-.512.102-.921.204-1.433.103-.512.103-1.024.308-1.638.102-.512.204-1.024.41-1.536.102-.512.204-.921.409-1.433.204-.512.307-1.024.512-1.536.204-.41.307-.921.511-1.33.205-.513.41-.922.615-1.434a9.36 9.36 0 0 1 .716-1.433c.205-.41.512-.82.717-1.229l.921-1.536c.205-.307.41-.614.717-.921.41-.512.82-1.126 1.229-1.638.204-.307.512-.512.716-.82.41-.511.922-1.023 1.434-1.535.102-.102.102-.205.204-.205 58.152-57.742 128.59-100.741 205.783-124.903 3.072-.921 6.245-1.433 9.214-1.33 3.481 0 6.86.716 10.136 1.842.102 0 .205.103.205.103.307.102.614.204.921.41.205.101.307.101.512.204l.614.307c.307.102.512.205.82.307.102.103.204.103.306.205.308.205.717.307 1.024.512h.103a32.028 32.028 0 0 1 8.19 6.654c2.048 2.355 3.89 5.12 5.221 8.088 19.964 44.126 62.554 72.895 110.263 72.895s90.401-28.769 110.263-72.895c.921-2.15 2.15-4.095 3.378-5.835 2.97-4.095 6.86-7.372 11.262-9.521.103 0 .103-.103.205-.103.307-.102.614-.307.921-.41.205-.102.307-.204.512-.204.205-.103.41-.205.615-.205.307-.102.511-.205.819-.307.102 0 .204-.102.307-.102a30.672 30.672 0 0 1 13.309-1.74c1.536.102 2.969.409 4.505.818.102 0 .204 0 .307.103l1.228.307h.103C737.849-102.098 808.798-58.69 867.257-.23l.102.102c.512.512 1.024 1.126 1.536 1.74.205.205.41.41.614.717.41.512.82 1.126 1.229 1.74l.614.922c.307.512.614.921.82 1.433.204.41.511.82.716 1.331.205.307.307.615.41.922.306.614.614 1.228.92 1.945.103.102.103.307.103.41.307.818.614 1.637.922 2.559v.205c.307.921.511 1.842.716 2.764.103.307.103.614.205 1.024.102.716.205 1.33.307 2.047.102.82.102 1.74.205 2.56v.512c0 2.047-.103 3.992-.41 6.04v.205c-.102.716-.307 1.536-.512 2.252-.102.307-.102.614-.204.82-.103.511-.307 1.023-.512 1.637-.205.512-.307 1.024-.512 1.434-.102.41-.307.716-.512 1.126-.307.614-.512 1.228-.819 1.843-.102.307-.307.614-.512.921-.307.614-.717 1.33-1.126 1.945 0 .103-.102.103-.102.205-12.798 20.476-19.657 44.228-19.657 69.106 0 70.028 54.568 126.848 121.831 126.848.922 0 1.74 0 2.56.103.819-.103 1.74-.205 2.56-.205 1.637-.102 3.173 0 4.709.102h.102c.41 0 .82.103 1.331.205h.307c.307.103.717.103 1.024.205.205 0 .307.102.512.102.205.103.512.103.717.205.307.102.511.102.819.205.204 0 .307.102.511.102.308.103.717.205 1.024.307.103 0 .103 0 .205.103a30.937 30.937 0 0 1 6.655 3.276c.41.307.819.512 1.228.819l.307.307c.307.205.615.41.82.614.204.205.511.41.716.615.102.102.307.204.41.41.307.306.716.613 1.023.92l.103.103a32.261 32.261 0 0 1 5.63 7.166s.103.103.103.205c.205.307.41.717.614 1.024.103.102.103.307.205.41.102.307.307.511.41.819l.307.614.307.614c.102.307.205.614.41.82.102.204.102.306.204.511.102.307.205.717.41 1.024 0 .102.102.307.102.41.102.409.205.716.307 1.126 0 .102.103.307.103.41.102.409.204.716.307 1.125v.205a557.291 557.291 0 0 1 13.514 122.036c-.41 41.26-5.017 82.109-13.924 121.832zM954.177 300.97c-92.858-9.93-165.24-91.63-165.24-190.938 0-28.052 5.835-55.285 16.79-80.06-41.464-37.369-89.173-66.65-140.874-86.102-33.683 52.112-90.504 84.873-153.058 84.873-62.554 0-119.374-32.761-153.057-84.873-50.985 19.248-98.182 48.016-139.339 84.77 11.364 25.186 17.405 52.93 17.405 81.392 0 100.025-73.509 182.236-167.39 191.143a493.87 493.87 0 0 0-6.962 82.723c0 27.95 2.354 55.592 7.064 82.722 93.882 8.907 167.39 91.118 167.39 191.143 0 28.564-6.04 56.309-17.404 81.494 41.156 36.754 88.353 65.523 139.338 84.77 33.683-52.213 90.504-84.872 153.058-84.872 62.451 0 119.374 32.761 153.057 84.872 51.6-19.452 99.308-48.732 140.874-86.101-10.954-24.878-16.79-52.009-16.79-80.06 0-99.309 72.382-181.008 165.24-190.939 4.71-27.13 7.065-54.875 7.065-82.927a506.759 506.759 0 0 0-7.167-83.03z" horiz-adv-x="1024"/><glyph glyph-name="liuchengmoxing" unicode="" d="M853.504 243.302v399.872H625.869V896H0V357.478h625.869v228.557h170.7V243.302h-170.7V71.987H455.168v171.315H0V-128h455.168V14.848h170.7V-128H1024v371.302H853.504zm-284.57 171.316h-512V838.86h512.103V414.618zm-170.7-342.733V-70.963h-341.3V186.06h341.402V71.885zM967.27-70.861H682.803v257.024H967.27V-70.86z" horiz-adv-x="1024"/><glyph glyph-name="yingyongzhongxin" unicode="" d="M1007.988 662.264L789.586 880.872c-20.07 20.17-52.732 20.17-72.801 0L498.382 662.264c-20.07-20.069-20.07-52.732 0-72.801l218.403-218.71c20.069-20.171 52.732-20.171 72.8 0l218.403 218.608c20.07 20.17 20.07 52.732 0 72.903zM753.646 409.662L538.11 625.402l215.536 215.741 215.536-215.74-215.536-215.74zm-383.46-111.198h-312.5c-31.435 0-56.828-25.496-56.828-56.828V-71.07c0-31.434 25.393-56.828 56.827-56.828h312.4c31.331 0 56.827 25.496 56.827 56.828v312.706c.102 31.332-25.393 56.828-56.725 56.828zm0-369.636h-312.5v312.808h312.398V-71.172zm0 881.393h-312.5C26.25 810.22.857 784.725.857 753.393V440.687c0-31.434 25.393-56.828 56.827-56.828h312.4c31.331 0 56.827 25.496 56.827 56.828v312.706c.102 31.332-25.393 56.828-56.725 56.828zm0-369.636h-312.5v312.808h312.398V440.585zm511.245-142.121H569.033c-31.333 0-56.828-25.496-56.828-56.828V-71.07c0-31.434 25.393-56.828 56.828-56.828H881.43c31.333 0 56.828 25.496 56.828 56.828v312.706c0 31.332-25.495 56.828-56.828 56.828zm0-369.636H569.033v312.808H881.43V-71.172z" horiz-adv-x="1024"/><glyph glyph-name="xinjianliucheng" unicode="" d="M777.83 627.814h-71.168v71.27h-54.476v-71.27h-71.168v-54.476h71.168V502.17h54.476v71.168h71.168v54.476zM336.282 321.946c11.264 0 20.48 9.113 20.48 20.48 0 11.264-9.114 20.48-20.48 20.48h-81.818c-11.264 0-20.48-9.114-20.48-20.48 0-11.264 9.114-20.48 20.48-20.48h81.818zm224.87 22.323v.102c-.307 3.38-1.536 6.554-3.277 9.216 0 0 0 .103-.102.103-.103.204-.307.41-.41.614l-.205.205c-.102.102-.204.307-.307.41l-.307.307c-.102.102-.102.204-.205.204-.41.41-.717.82-1.126 1.23-.41.409-.82.716-1.229 1.126-.102.102-.205.102-.307.204l-.307.308c-.205.102-.308.204-.512.41-.103 0-.103.102-.205.102-.205.102-.41.307-.615.41 0 0-.102 0-.102.102-2.662 1.74-5.837 2.97-9.216 3.276h-.102c-.308 0-.615 0-.922.103h-41.882c-11.264 0-20.48-9.114-20.48-20.48 0-11.264 9.114-20.48 20.48-20.48h20.48V-87.245H70.451v409.19h20.48c11.264 0 20.48 9.114 20.48 20.48 0 11.265-9.113 20.48-20.48 20.48h-40.96c-11.264 0-20.48-9.113-20.48-20.48V-107.52c0-11.264 9.114-20.48 20.48-20.48h490.803c11.264 0 20.48 9.114 20.48 20.48v450.867c-.102.307-.102.615-.102.922zM131.789 158.31h327.168c11.264 0 20.48 9.114 20.48 20.48 0 11.264-9.114 20.48-20.48 20.48H131.789c-11.264 0-20.48-9.113-20.48-20.48s9.216-20.48 20.48-20.48zm327.168-40.96H131.789c-11.264 0-20.48-9.113-20.48-20.48 0-11.264 9.113-20.48 20.48-20.48h327.168c11.264 0 20.48 9.114 20.48 20.48s-9.114 20.48-20.48 20.48zm0-81.715H131.789c-11.264 0-20.48-9.113-20.48-20.48 0-11.264 9.113-20.48 20.48-20.48h327.168c11.264 0 20.48 9.114 20.48 20.48 0 11.264-9.114 20.48-20.48 20.48zm-20.378 265.83v81.818c0 5.427-2.15 10.65-5.939 14.439-3.789 3.788-9.011 5.939-14.438 5.939-5.428 0-10.65-2.15-14.439-5.94-3.789-3.788-6.041-9.01-6.041-14.438v-81.817c0-11.264 9.113-20.48 20.48-20.48 11.161 0 20.377 9.113 20.377 20.48zm-245.453 0v81.818c0 11.264-9.113 20.48-20.48 20.48-5.427 0-10.65-2.15-14.438-5.939-3.789-3.789-5.94-9.011-5.94-14.438v-81.818c0-11.264 9.114-20.48 20.48-20.48 11.265-.102 20.378 9.011 20.378 20.378zM218.316 896h-70.655V544.358h70.656v281.293h694.579V-18.227H712.192v-70.349h282.214V896h-776.09z" horiz-adv-x="1024"/><glyph glyph-name="shitumoxing" unicode="" d="M0 896V-128h1024V896H0zm960-271.974H576v-64h128V384h64v176.026h192V-64H768v320h-64V128H576V64h128V-64H415.949v192h-64V-64H64v416.051h288.051V256h64v256h-64v-95.949H64V832h288.051V640h64v192H960V624.026z" horiz-adv-x="1024"/><glyph glyph-name="gongzuotai" unicode="" d="M52.429 447.898l459.776 378.675 459.673-370.995c13.517-10.957 33.28-8.807 44.237 4.812 10.855 13.62 8.704 33.485-4.813 44.442L537.805 886.989c-14.95 12.083-36.967 11.98-51.815-.205L12.493 496.742c-7.475-6.144-11.469-15.257-11.469-24.268 0-7.066 2.355-14.234 7.168-20.07 10.957-13.62 30.822-15.566 44.237-4.506zM1011.2 331.059L537.805 713.216c-15.053 12.083-36.967 11.98-51.815-.205L12.493 322.97c-7.475-6.247-11.469-15.258-11.469-24.372 0-7.065 2.355-14.233 7.168-20.07 10.957-13.517 30.822-15.462 44.237-4.403l66.56 54.784V-33.28c0-52.326 42.291-94.72 94.413-94.72h227.942v247.603c0 8.704 7.066 15.77 15.667 15.77h110.08c8.704 0 15.667-7.066 15.667-15.77V-128h227.943c52.121 0 94.413 42.394 94.413 94.72v369.05l66.764-53.863c13.517-10.957 33.28-8.806 44.237 4.813 10.855 13.517 8.704 33.485-4.915 44.34zM842.138-33.28c0-17.408-14.03-31.54-31.437-31.54H645.632v184.423c0 43.623-35.226 78.95-78.643 78.95h-110.08c-43.418 0-78.643-35.327-78.643-78.95V-64.819H213.299c-17.408 0-31.437 14.131-31.437 31.539v414.003L512.205 652.8l329.933-266.342V-33.28z" horiz-adv-x="1024"/><glyph glyph-name="xinjianfuwu" unicode="" d="M791.245 642.458h-67.277v67.379h-51.507v-67.38h-67.277V590.95h67.277v-67.276h51.507v67.276h67.277v51.508zM262.246 896h-66.764V563.507h66.764V829.44h656.692V31.54H729.19v-66.458h266.855V896H262.246zm324.199-658.74c-.512 39.834-15.667 79.566-45.466 109.978-43.315 44.954-112.025 58.676-170.393 33.792a14.823 14.823 0 0 1-3.482-2.048c-16.896-7.68-32.666-18.432-46.49-32.46L213.3 237.875a15.175 15.175 0 0 1 0-20.685c5.735-5.53 14.643-5.53 20.378 0l107.417 108.34c49.664 50.483 130.15 50.483 179.917 0a125.839 125.839 0 0 0 18.125-22.938c29.798-49.766 23.552-115.507-18.74-158.618l-106.7-109.26c-5.427-5.837-5.427-14.848 0-20.788 5.734-5.53 14.643-5.53 20.378 0L540.98 123.187c14.029 14.234 24.679 30.515 32.256 47.923.41.717.82 1.434 1.127 2.253a161.662 161.662 0 0 1 12.083 61.338v2.56zM338.944-68.095l-18.637-18.74-27.443 27.854c-.512.819-1.229 1.638-1.946 2.355L93.696 143.565c-49.46 50.483-49.46 132.3 0 182.784 29.9 30.105 72.397 43.52 114.074 35.635 7.782-1.434 15.257 3.789 16.69 11.674 1.434 7.884-3.686 15.462-11.468 16.896-50.893 9.625-102.912-6.759-139.366-43.828-60.928-61.644-60.928-162.099 0-223.744l33.894-34.406c.717-1.331 1.638-2.662 2.765-3.789L320-128l39.322 39.117a15.175 15.175 0 0 1 0 20.685c-5.735 5.632-14.644 5.632-20.378.102zM250.88 106.701l61.235 61.645a15.175 15.175 0 0 1 0 20.684c-5.734 5.53-14.643 5.53-20.377 0l-61.236-61.644a15.175 15.175 0 0 1 0-20.685 14.358 14.358 0 0 1 10.343-4.403c3.686.102 7.168 1.536 10.035 4.403zm106.291 16.077l-60.62-61.338a15.175 15.175 0 0 1 0-20.685c2.56-2.97 6.348-4.403 10.035-4.403 3.788 0 7.475 1.434 10.342 4.403l60.62 61.338a15.175 15.175 0 0 1 0 20.685c-5.734 5.53-14.642 5.53-20.377 0z" horiz-adv-x="1024"/><glyph glyph-name="biaodanmoxing" unicode="" d="M1017.242 91.238H811.52c-3.891 0-6.963-3.072-6.963-6.86v-59.29a6.861 6.861 0 0 0-6.861-6.86H665.19a6.861 6.861 0 0 0-6.86 6.86v59.29a6.861 6.861 0 0 0 6.86 6.86h59.29a6.861 6.861 0 0 1 6.86 6.861v205.62a6.861 6.861 0 0 1-6.86 6.86H519.168a6.861 6.861 0 0 1-6.86-6.86V98.201a6.861 6.861 0 0 1 6.86-6.861h59.187a6.861 6.861 0 0 0 6.861-6.861V25.19a6.861 6.861 0 0 0-6.86-6.86h-132.61a6.861 6.861 0 0 0-6.86 6.86v59.495a6.861 6.861 0 0 1-6.861 6.86H226.509a6.861 6.861 0 0 1-6.861-6.86v-205.62a6.861 6.861 0 0 1 6.86-6.86h205.62a6.861 6.861 0 0 1 6.86 6.86v59.29a6.861 6.861 0 0 0 6.862 6.861H797.9a6.861 6.861 0 0 0 6.862-6.86v-59.29a6.861 6.861 0 0 1 6.86-6.861h205.722c3.38 0 6.246 2.457 6.758 5.734V85.811c-.614 2.97-3.481 5.427-6.86 5.427zM365.772-48.026a6.861 6.861 0 0 0-6.86-6.86h-59.29a6.861 6.861 0 0 0-6.86 6.86v59.29a6.861 6.861 0 0 0 6.86 6.86h59.29a6.861 6.861 0 0 0 6.86-6.86v-59.29zm292.455 219.341c0-3.789-2.97-6.86-6.86-6.86h-59.188a6.861 6.861 0 0 0-6.86 6.86v59.187a6.861 6.861 0 0 0 6.86 6.861h59.187a6.861 6.861 0 0 0 6.861-6.86v-59.188zM950.99-48.025a6.861 6.861 0 0 0-6.861-6.861h-59.392a6.861 6.861 0 0 0-6.86 6.86v59.29a6.861 6.861 0 0 0 6.86 6.86h59.392a6.861 6.861 0 0 0 6.86-6.86v-59.29zm-811.725-6.657h-59.29a6.861 6.861 0 0 0-6.86 6.861v863.744a6.861 6.861 0 0 0 6.86 6.861h498.381a6.861 6.861 0 0 0 6.861-6.86V610.098a6.861 6.861 0 0 1 6.86-6.86h205.927a6.861 6.861 0 0 0 6.861-6.861l-.102-205.927a6.861 6.861 0 0 1 6.86-6.86h59.392a6.861 6.861 0 0 1 6.861 6.86l-1.024 279.86a6.861 6.861 0 0 1-6.86 6.86h-65.025v-.717h-.204v66.356a6.861 6.861 0 0 1-6.861 6.86H738.51a6.861 6.861 0 0 0-6.861 6.861v59.597a6.861 6.861 0 0 1-6.86 6.86h-66.356v66.151a6.861 6.861 0 0 1-6.86 6.861H13.721C6.144 896 0 889.856 0 882.278v-996.454c0-7.578 6.144-13.722 13.722-13.722h125.542a6.861 6.861 0 0 1 6.86 6.861v59.495c0 3.686-3.071 6.86-6.86 6.86zm13.824 731.341h351.949a6.861 6.861 0 0 1 6.86 6.861v59.392c0 3.789-2.969 6.86-6.86 6.86h-351.95a6.861 6.861 0 0 1-6.86-6.86V683.52a6.861 6.861 0 0 1 6.86-6.86zm-6.86-139.776a6.861 6.861 0 0 1 6.86-6.86h351.949a6.861 6.861 0 0 1 6.86 6.86v59.495a6.861 6.861 0 0 1-6.86 6.86h-351.95a6.861 6.861 0 0 1-6.86-6.86v-59.495zm0-146.534a6.861 6.861 0 0 1 6.86-6.861h571.494a6.861 6.861 0 0 1 6.861 6.86v59.495a6.861 6.861 0 0 1-6.86 6.861H153.087a6.861 6.861 0 0 1-6.86-6.86v-59.495zm292.556-146.125v59.494c.102 3.79-2.97 6.861-6.758 6.861H153.088a6.861 6.861 0 0 1-6.86-6.86v-59.495a6.861 6.861 0 0 1 6.86-6.86h278.835a6.861 6.861 0 0 1 6.861 6.86z" horiz-adv-x="1024"/><glyph glyph-name="renyuanxuanze" unicode="" d="M353.69 365.67v.103c0 12.288-10.855 22.323-24.167 22.323-87.757 0-159.13 70.246-159.13 156.672s71.373 156.672 159.13 156.672c13.415 0 24.167 9.933 24.167 22.323s-10.855 22.323-24.167 22.323c-114.38 0-207.462-90.316-207.462-201.216 0-74.035 41.472-138.65 103.014-173.568C97.485 329.523 4.301 214.221 0 77.312V64.819C1.331 53.76 11.571 45.056 24.064 45.056c13.414 0 24.166 9.933 24.166 22.323 0 152.167 126.157 275.968 281.293 275.968 13.415 0 24.167 9.933 24.167 22.323zm377.446-9.932c78.438 39.628 131.789 116.326 131.789 204.39 0 128.717-113.664 233.472-253.338 233.472S356.25 688.845 356.25 560.128c0-88.986 54.374-166.4 134.041-205.824C324.403 307.2 203.47 164.762 203.47-3.379c0-12.288 10.854-22.323 24.166-22.323 13.312 0 24.167 10.035 24.167 22.323 0 181.76 160.46 329.625 355.942 329.728 1.638-.205 3.174.205 4.71.41 2.15-.41 4.404-.615 6.759-.41 195.584-.103 356.25-147.968 356.25-329.728 0-12.288 10.854-22.323 24.166-22.323 13.414 0 24.166 10.035 24.166 22.323.205 170.086-123.699 313.753-292.659 359.117zm-121.549 15.564c-113.05 0-204.902 84.685-204.902 188.826s91.955 188.826 204.902 188.826c113.05 0 204.903-84.685 204.903-188.826 0-104.038-91.853-188.826-204.903-188.826z" horiz-adv-x="1024"/><glyph glyph-name="tianjia" unicode="" d="M444.006 896H581.94V453.94H1024V316.108H581.94V-128H444.005v444.109H0v137.83h444.006V896z" horiz-adv-x="1024"/><glyph glyph-name="fuzhi" unicode="" d="M73.83-128h657.92c40.756 0 74.036 32.973 74.036 73.728V20.48h144.281c40.755 0 74.035 32.973 74.035 73.728v728.064c.103 40.755-32.972 73.728-73.83 73.728H223.949c-40.755 0-74.035-32.973-74.035-73.728V678.81H73.83c-39.219 0-71.372-30.413-73.83-68.916V-58.982C2.458-97.485 34.509-128 73.83-128zm149.812 950.477c0 .102.204.205.204.205h726.426c.102 0 .205-.205.205-.205V94.208c0-.102-.205-.205-.205-.205h-726.63v728.474zM73.626 605.184c0 .102.204.205.204.205h.103l76.185-.103s-1.74-544.358-1.74-548.147c0-20.275 16.384-36.659 36.761-36.659h547.123v-74.752c0-.102-.204-.205-.204-.205H73.83c-.102 0-.204.205-.204.205v659.456z" horiz-adv-x="1024"/><glyph glyph-name="zibiaodan" unicode="" d="M433.211 738.525H590.79c21.707 0 39.42 17.61 39.42 39.42 0 21.706-17.611 39.42-39.42 39.42H433.21c-21.707 0-39.42-17.611-39.42-39.42s17.611-39.42 39.42-39.42zm590.687 41.263c0 .614-.103 1.126-.103 1.74v.205c-.614 6.553-2.867 12.594-6.348 17.816 0 .102-.102.102-.102.205-.308.41-.512.819-.82 1.228-.102.103-.204.307-.307.41-.204.307-.41.614-.614.819-.205.205-.41.512-.512.717-.102.204-.307.307-.41.41-.716.818-1.433 1.638-2.15 2.354-.716.717-1.535 1.434-2.355 2.15-.204.103-.307.308-.512.41-.204.205-.41.307-.614.512-.307.205-.614.512-.921.717-.103.102-.308.204-.41.307-.41.307-.82.614-1.229.819-.102 0-.102.102-.204.102-5.222 3.482-11.263 5.734-17.816 6.348h-.205c-.512.103-1.126.103-1.74.103-.615 0-1.332.102-1.946.102h-78.738c-21.706 0-39.42-17.61-39.42-39.42 0-21.706 17.611-39.42 39.42-39.42h39.42V-49.16H78.738v787.685h39.42c21.706 0 39.42 17.61 39.42 39.42 0 21.706-17.611 39.42-39.42 39.42H39.42C17.611 817.262 0 799.65 0 777.842V-88.58C0-110.287 17.611-128 39.42-128h945.16c21.707 0 39.42 17.611 39.42 39.42v866.422c-.102.717-.102 1.331-.102 1.946zM196.896 423.47h630.106c21.707 0 39.42 17.611 39.42 39.42 0 21.707-17.61 39.42-39.42 39.42H196.896c-21.707 0-39.42-17.61-39.42-39.42s17.713-39.42 39.42-39.42zm630.106-78.84H196.896c-21.707 0-39.42-17.61-39.42-39.42 0-21.707 17.61-39.42 39.42-39.42h630.106c21.707 0 39.42 17.611 39.42 39.42s-17.713 39.42-39.42 39.42zm0-157.475H196.896c-21.707 0-39.42-17.611-39.42-39.42 0-21.707 17.61-39.42 39.42-39.42h630.106c21.707 0 39.42 17.61 39.42 39.42s-17.713 39.42-39.42 39.42zm-78.738 472.528c21.707 0 39.42 17.611 39.42 39.42V856.58c0 10.444-4.095 20.478-11.57 27.85-7.372 7.372-17.406 11.57-27.85 11.57s-20.478-4.198-27.85-11.57-11.57-17.406-11.57-27.85V699.104c0-21.706 17.611-39.42 39.42-39.42zm-472.63 0c21.706 0 39.42 17.611 39.42 39.42V856.58c0 21.707-17.612 39.42-39.42 39.42-10.445 0-20.479-4.198-27.85-11.57-7.373-7.372-11.57-17.406-11.57-27.85V699.104c.102-21.706 17.713-39.42 39.42-39.42z" horiz-adv-x="1024"/><glyph glyph-name="waijianlianjie" unicode="" d="M241.262 469.024l-92.46 92.358c-29.08 29.182-29.182 76.282-.308 105.566l78.638 79.457c28.874 29.284 75.872 29.489 105.157.307l92.46-92.255c20.58-20.581 30.922-50.377 22.526-76.385l82.938-81.607c57.851 58.364 57.647 153.077-.615 211.03L384.304 852.689c-58.057 58.056-152.155 57.647-210.11-.717L43.236 719.373c-57.851-58.466-57.647-152.974.614-211.133l145.09-144.885c58.16-58.158 152.258-57.954 210.11.615l-81.3 81.709c-24.78-6.86-56.93 3.788-76.487 23.345zm738.043-202.02l-140.072 139.97c-59.183 59.183-155.125 58.876-214.103-.716l83.245-84.371c26.418 8.908 56.623-1.741 77.614-22.732l86.419-86.316c29.591-29.49 29.796-77.818.41-107.614l-80.276-80.788c-29.387-29.899-77.306-30-106.898-.41l-86.316 86.317c-20.07 20.069-31.025 52.835-24.165 78.228l-83.552 82.733c-58.773-59.593-58.466-155.739.717-215.126L632.4-83.791c59.388-59.183 155.227-58.876 214.102.511L979.92 51.878c58.978 59.592 58.67 155.841-.615 215.126zM354.917 543.873c-19.762-20.274-19.66-53.142.307-73.415l239.393-243.694c19.967-20.171 52.118-20.069 71.777.307 19.762 20.479 19.557 53.244-.307 73.416L426.694 544.18c-19.966 20.07-52.015 19.967-71.777-.307z" horiz-adv-x="1024"/><glyph glyph-name="wenjianshangchuan" unicode="" d="M310.067 532.378l169.677 167.116V178.688c0-19.251 15.565-34.611 35.02-34.611 19.354 0 35.022 15.462 35.022 34.611v520.806L714.65 535.45c13.721-13.517 35.43-13.517 49.152 0 13.721 13.516 13.516 35.43-.205 48.947l-225.28 222.72c-6.861 6.758-15.77 10.035-24.781 10.035-8.294 0-16.486-2.97-23.245-8.806-2.048-1.23-3.789-2.868-5.53-4.608L259.79 581.325a34.246 34.246 0 0 1 0-48.947c13.721-13.517 36.557-13.517 50.278 0zM988.98 415.334c-19.353 0-35.02-15.462-35.02-34.61V19.967H69.938v360.755c0 19.251-15.565 34.611-35.02 34.611C15.564 415.334 0 399.872 0 380.724V-3.585c0-24.269 21.3-45.67 45.466-45.67h936.243c24.166 0 42.291 21.401 42.291 45.67V380.62c0 19.251-15.565 34.713-35.02 34.713z" horiz-adv-x="1024"/><glyph glyph-name="kaishishijian" unicode="" d="M0 384a512 512 0 1 1 1024 0A512 512 0 1 1 0 384zm512 512C229.478 896 0 666.42 0 384s229.478-512 512-512c282.42 0 512 229.58 512 512S794.42 896 512 896zm0-56.832c251.7 0 455.27-203.469 455.27-455.27S763.7-71.27 512-71.27 56.73 132.3 56.73 384 260.3 839.168 512 839.168zm0 0" horiz-adv-x="1024"/><glyph glyph-name="jieshushijian" unicode="" d="M0 384a512 512 0 1 1 1024 0A512 512 0 1 1 0 384zm983.757 199.27c-25.805 60.928-62.669 115.712-109.67 162.714-47.002 47.002-101.786 83.866-162.714 109.67C648.192 882.484 581.12 896 512 896s-136.192-13.517-199.27-40.243c-60.928-25.805-115.712-62.669-162.714-109.67C103.014 699.084 66.15 644.3 40.346 583.372 13.516 520.192 0 453.12 0 384s13.517-136.192 40.243-199.27c25.805-60.928 62.669-115.712 109.67-162.714C196.916-24.986 251.7-61.85 312.628-87.654 375.808-114.484 442.88-128 512-128s136.192 13.517 199.27 40.243c60.928 25.805 115.712 62.669 162.714 109.67 47.002 47.002 83.866 101.786 109.67 162.714C1010.484 247.808 1024 314.88 1024 384s-13.517 136.192-40.243 199.27zM512-16.589c-220.877 0-400.589 179.712-400.589 400.589S291.123 784.589 512 784.589 912.589 604.877 912.589 384 732.877-16.589 512-16.589z" horiz-adv-x="1024"/><glyph glyph-name="zhongjianshijian" unicode="" d="M0 384a512 512 0 1 1 1024 0A512 512 0 1 1 0 384zm512 512C229.478 896 0 666.42 0 384s229.478-512 512-512c282.42 0 512 229.58 512 512S794.42 896 512 896zm0-967.27C260.3-71.27 56.73 132.3 56.73 384S260.3 839.168 512 839.168s455.27-203.469 455.27-455.27S763.7-71.27 512-71.27zm283.546 738.816C719.77 743.322 619.11 784.998 512 784.998c-107.11 0-207.77-41.676-283.546-117.452C152.678 591.77 111.002 491.11 111.002 384c0-107.11 41.676-207.77 117.452-283.546C304.23 24.678 404.89-16.998 512-16.998c107.11 0 207.77 41.676 283.546 117.452C871.322 176.23 912.998 276.89 912.998 384c0 107.11-41.676 207.77-117.452 283.546zM512 37.99c-190.771 0-346.01 155.24-346.01 346.01S321.23 730.01 512 730.01 858.01 574.77 858.01 384 702.77 37.99 512 37.99z" horiz-adv-x="1024"/><glyph glyph-name="jiaobiao" unicode="" d="M0 0h128v128H0V0zm128 128h128v128H128V128zm256 256H256V256h128v128zm128 128H384V384h128v128zm128 128H512V512h128v128zm128 128H640V640h128v128zm128 128H768V768h128v128zM384-128h128V0H384v-128zM512 0h128v128H512V0zm128 128h128v128H640V128zm128 128h128v128H768V256zm128 256V384h128v128H896zM768-128h128V0H768v-128zM896 0h128v128H896V0z" horiz-adv-x="1024"/><glyph glyph-name="renwu" unicode="" d="M910.95 730.317h-797.9C50.688 730.317 0 683.11 0 624.947V143.053C0 84.89 50.688 37.683 113.05 37.683h797.798c62.362 0 113.05 47.309 113.05 105.37v481.894c.102 58.163-50.586 105.37-112.948 105.37zm0 0h-797.9C50.688 730.317 0 683.11 0 624.947V143.053C0 84.89 50.688 37.683 113.05 37.683h797.798c62.362 0 113.05 47.309 113.05 105.37v481.894c.102 58.163-50.586 105.37-112.948 105.37zm68.506-587.264c0-35.226-30.72-63.898-68.506-63.898h-797.9c-37.786 0-68.506 28.672-68.506 63.898v481.894c0 35.226 30.72 63.898 68.506 63.898h797.798c37.786 0 68.506-28.672 68.506-63.898V143.053z" horiz-adv-x="1024"/><glyph glyph-name="ziliucheng" unicode="" d="M910.95 730.317h-797.9C50.688 730.317 0 683.11 0 624.947V143.053C0 84.89 50.688 37.683 113.05 37.683h797.798c62.362 0 113.05 47.309 113.05 105.37v481.894c.102 58.163-50.586 105.37-112.948 105.37zm0 0h-797.9C50.688 730.317 0 683.11 0 624.947V143.053C0 84.89 50.688 37.683 113.05 37.683h797.798c62.362 0 113.05 47.309 113.05 105.37v481.894c.102 58.163-50.586 105.37-112.948 105.37zm68.506-587.264c0-35.226-30.72-63.898-68.506-63.898h-797.9c-37.786 0-68.506 28.672-68.506 63.898v481.894c0 35.226 30.72 63.898 68.506 63.898h797.798c37.786 0 68.506-28.672 68.506-63.898V143.053z" horiz-adv-x="1024"/><glyph glyph-name="wangguan" unicode="" d="M.001 383.997l511.99 511.99 511.99-511.99-511.99-511.99zM512.071-128l-512 512 512 512 512-512-512-512zM67.862 384L512.07-60.211 956.284 384 512.072 828.211 67.86 384z" horiz-adv-x="1024"/><glyph glyph-name="zhushi" unicode="" d="M323.789-60.211V828.21H768V896H256V-128h512v67.789H323.789z" horiz-adv-x="1024"/><glyph glyph-name="shequyingyong" unicode="" d="M967.987 308.02H56.013c-29.491 0-53.76-22.836-55.91-51.61V113.766C2.047 87.654 22.22 66.458 48.025 62.771V-66.355c0-33.997 27.852-61.645 61.952-61.645h804.044c34.202 0 61.952 27.648 61.952 61.645V62.77c27.136 3.891 48.128 27.136 48.128 55.194v134.451c0 30.618-25.19 55.603-56.115 55.603zM930.202-37.07v-29.389c0-8.908-7.27-16.076-16.18-16.076H110.08c-8.909 0-16.18 7.168-16.18 16.076V61.03h836.302v-98.099zm48.128 246.375v-91.444c0-5.632-4.608-10.24-10.343-10.24H56.013c-5.632 0-10.343 4.608-10.343 10.24v134.452c0 5.632 4.608 10.24 10.343 10.24h911.974c5.632 0 10.343-4.506 10.343-10.24v-43.008zM277.3 381.645h471.346c12.8 0 23.245 10.854 23.245 24.064L694.374 631.09c0 13.21-10.444 24.064-23.244 24.064H526.438c60.416 7.168 107.213 58.163 107.213 120.013C633.651 841.933 579.174 896 512 896c-67.277 0-121.651-54.067-121.651-120.934 0-61.952 46.899-112.948 107.213-120.013H354.816c-12.8 0-23.245-10.855-23.245-24.064l-77.517-225.383c0-13.21 10.343-23.961 23.245-23.961zM475.237 608.05c0 8.192 8.09 14.848 18.023 14.848h34.918c9.83 0 18.023-6.758 18.023-14.848l-15.053-35.43 15.053-113.562c0-8.192-23.04-51.814-32.973-51.814h-5.018c-9.83 0-32.973 43.725-32.973 51.814l15.156 114.074-15.156 34.918zm218.01-398.745H352.87c-6.348 0-11.468-5.12-11.468-11.367v-22.733c0-6.246 5.12-11.366 11.468-11.366h340.378c6.349 0 11.469 5.12 11.469 11.366v22.733c0 6.247-5.12 11.367-11.469 11.367z" horiz-adv-x="1024"/><glyph glyph-name="tuodong" unicode="" d="M1007.206 353.997L862.003 208.794c-6.246-6.247-16.384-6.247-22.63 0l-22.63 22.63c-6.247 6.246-6.247 16.384 0 22.63l97.996 97.895H543.95v-370.79l97.997 97.996c6.246 6.247 16.384 6.247 22.63 0l22.63-22.63c6.247-6.247 6.247-16.384 0-22.63l-145.1-145.101C541.798-110.49 524.39-128 512-128s-28.774 17.51-30.003 16.794L336.794 33.997c-6.247 6.246-6.247 16.384 0 22.63l22.63 22.63c6.246 6.247 16.384 6.247 22.63 0l97.895-97.996v370.688H109.26l97.997-97.997c6.246-6.246 6.246-16.384 0-22.63l-22.63-22.63c-6.247-6.247-16.385-6.247-22.631 0L16.794 353.893C17.51 354.202 0 371.61 0 384s17.51 28.774 16.794 30.106l145.203 145.1c6.246 6.247 16.384 6.247 22.63 0l22.63-22.63c6.247-6.246 6.247-16.384 0-22.63l-97.996-97.895h370.79V786.74l-97.997-97.997c-6.246-6.246-16.384-6.246-22.63 0l-22.63 22.63c-6.247 6.247-6.247 16.385 0 22.631l145.1 145.203C482.202 878.49 499.61 896 512 896s28.774-17.51 30.003-16.794l145.203-145.203c6.247-6.246 6.247-16.384 0-22.63l-22.63-22.63c-6.246-6.247-16.384-6.247-22.63 0l-97.895 97.996V415.95h370.79l-97.996 97.997c-6.247 6.246-6.247 16.384 0 22.63l22.63 22.63c6.247 6.247 16.384 6.247 22.63 0l145.204-145.203c-.717-.307 16.793-17.715 16.793-30.105-.102-12.288-17.612-28.672-16.896-29.901z" horiz-adv-x="1024"/><glyph glyph-name="huodongyingyong" unicode="" d="M957.235 806.912H734.618V896h-66.765v-89.088H356.147V896h-66.765v-89.088H66.765C29.9 806.912 0 777.012 0 740.147V-61.235C0-98.1 29.9-128 66.765-128h890.47C994.1-128 1024-98.1 1024-61.235v801.382c0 36.864-29.9 66.765-66.765 66.765zm0-801.382c0-36.864-29.9-66.765-66.765-66.765H133.53c-36.864 0-66.765 29.9-66.765 66.765v467.558h890.47V5.53zm0 534.323H66.765v133.53c0 36.863 29.9 66.764 66.765 66.764h155.852v-66.765h66.765v66.765h311.706v-66.765h66.765v66.765H890.47c36.864 0 66.765-29.9 66.765-66.765v-133.53zM474.726 4.3c1.741-3.891 5.325-6.554 9.626-7.066a11.604 11.604 0 0 1 10.854 4.813c2.458 3.482 2.97 7.987 1.23 11.878l-69.223 156.57 1.126 2.253c15.77 30.003 33.485 64.102 125.03 55.91a95.922 95.922 0 0 1 51.405 9.523c14.132 6.759 27.546 16.896 39.936 30.31 19.354 20.89 36.557 50.28 46.9 80.59 3.993 11.57 6.656 22.22 7.68 30.924.921 8.192 1.228 19.764-7.27 25.293-2.356 1.536-10.855 5.735-20.993-3.789l-3.789-3.584c-26.316-24.985-43.724-41.574-140.288-9.01-25.19 8.6-51.814 12.594-78.54 11.57-20.89-.819-41.677-4.812-61.645-11.878-34.1-11.98-54.375-28.877-55.194-29.491-.717-.615-1.433-1.331-1.945-2.048-5.018-3.175-6.964-9.421-4.506-14.848L474.726 4.3zm-78.95 362.291c40.243 13.926 81.92 13.926 123.802-.102 49.561-16.692 84.582-22.221 110.387-17.51 19.251 3.48 32.256 12.492 43.725 22.425-1.844-7.27-4.096-14.439-6.861-21.504-8.909-23.143-21.607-44.954-35.943-61.543-22.835-26.316-48.23-38.502-75.264-36.147-46.796 4.096-81.92-1.843-107.11-18.227-16.077-10.445-25.907-23.654-33.28-36.147L350.72 343.552c13.722 9.728 28.98 17.51 45.056 23.04z" horiz-adv-x="1024"/><glyph glyph-name="xiangji" unicode="" d="M964.403 643.891H826.368c-32.666 0-58.88 26.01-58.88 58.675v88.27c0 32.562-26.214 58.674-58.88 58.674H314.675c-32.665 0-58.88-26.01-58.88-58.675v-88.371c0-32.563-26.214-58.675-58.88-58.675H58.88C26.214 643.89 0 617.779 0 585.216V-22.835C0-55.398 26.214-81.51 58.88-81.51h906.24c32.666 0 58.88 26.01 58.88 58.675v608.051c-.717 32.563-26.931 58.675-59.597 58.675zM509.44 98.1c-116.326 0-210.74 94.106-210.74 209.92s94.516 209.92 210.74 209.92 210.74-94.105 210.74-209.92S625.765 98.1 509.44 98.1z" horiz-adv-x="1024"/><glyph glyph-name="liebiaozhanshi" unicode="" d="M221.9 802.918V663.245H1024v139.673H221.9zm0-488.755H1024v139.674H221.9V314.163zm0-349.081H1024v139.673H221.9V-34.918zM0 663.245h133.632v139.673H0V663.245zm0-349.082h133.632v139.674H0V314.163zM0-34.918h133.632v139.673H0V-34.918z" horiz-adv-x="1024"/><glyph glyph-name="qiapianzhanshi" unicode="" d="M0 640h256v256H0V640zm384 0h256v256H384V640zm384 256V640h256v256H768zM0 256h256v256H0V256zm384 0h256v256H384V256zm384 0h256v256H768V256zM0-128h256v256H0v-256zm384 0h256v256H384v-256zm384 0h256v256H768v-256z" horiz-adv-x="1024"/><glyph glyph-name="duohangwenben" unicode="" d="M0 168.755h1024v61.133H0v-61.133zm511.898 519.373v-61.133H1024v61.133H511.898zM142.643 414.106h216.781L412.57 286.72h74.24L288.563 752.026h-71.885L18.33 286.72h74.24l50.073 127.386zM241.87 660.07c3.174 7.578 5.939 18.432 8.397 32.461h1.638c2.867-15.462 5.632-26.214 8.09-32.46l78.643-193.434H163.84l78.029 193.433zm270.029-185.856H1024v61.133H511.898v-61.133zM0 15.974h1024v61.133H0V15.974zm511.898 305.562H1024v61.133H511.898v-61.133z" horiz-adv-x="1024"/><glyph glyph-name="fuwenben" unicode="" d="M986.42 8.704c.409 3.174.92 6.349.92 9.626v741.478c21.812 12.698 36.558 35.942 36.558 62.976C1024 863.232 991.232 896 950.886 896c-27.033 0-50.278-14.746-62.976-36.557H136.192C123.494 881.152 100.147 896 73.114 896 32.768 896 0 863.232 0 822.886c0-27.033 14.848-50.278 36.557-62.976V18.33c0-3.277.512-6.452.921-9.626C15.258-3.891 0-27.443 0-54.886 0-95.232 32.768-128 73.114-128c40.345 0 73.113 32.768 73.113 73.114H877.67c0-40.346 32.768-73.114 73.114-73.114 40.346 0 73.114 32.768 73.114 73.114.102 27.443-15.156 50.995-37.479 63.59zm-72.09 9.626H109.67v741.478a72.626 72.626 0 0 1 26.42 26.42h751.718a72.626 72.626 0 0 1 26.42-26.42V18.33zM256 676.557v-146.33h73.114v73.114h146.33V201.01H402.33V128h219.443v73.114h-73.114v402.33h146.33V530.33H768v146.227H256z" horiz-adv-x="1024"/><glyph glyph-name="danhangwenben" unicode="" d="M142.643 352.051h216.781l53.146-131.174h74.24L288.563 700.21h-71.885L18.33 220.877h74.24l50.073 131.174zm99.226 253.44c3.174 7.885 5.939 18.944 8.397 33.383h1.638c2.867-15.872 5.632-27.034 8.09-33.383l78.643-199.27H163.84l78.029 199.27zM0 130.765V67.789h1024v62.976H0zm555.725 108.953c21.299-17.92 49.971-26.93 86.016-26.93 50.176 0 88.166 20.274 113.971 60.927h1.638v-52.94h65.23v220.467c0 86.63-44.852 129.945-134.452 129.945-48.435 0-91.136-10.65-128.102-31.846v-58.47c36.761 27.647 77.414 41.471 121.958 41.471 50.176 0 75.264-27.955 75.264-83.865l-110.08-14.336c-82.227-10.547-123.392-47.719-123.392-111.719 0-30.515 10.65-54.784 31.949-72.704zm51.61 121.037c11.57 10.343 32.563 17.306 62.975 20.992l87.04 10.855v-32.768c0-28.058-9.318-51.405-27.852-69.94-18.637-18.534-42.292-27.852-70.964-27.852-20.582 0-37.17 5.12-49.766 15.462-12.595 10.342-18.842 23.654-18.842 39.936.103 18.534 5.837 32.973 17.408 43.315z" horiz-adv-x="1024"/><glyph glyph-name="tupian" unicode="" d="M240.64 453.222c30.72 0 51.2 10.24 71.68 30.823 20.48 20.48 30.72 46.182 30.72 71.885s-10.24 51.302-30.72 71.884-40.96 30.823-71.68 30.823-51.2-10.24-71.68-30.823c-20.48-20.48-30.72-41.062-30.72-71.884s10.24-51.303 30.72-71.885c20.48-20.48 46.08-30.823 71.68-30.823zm645.12-102.604L665.6 571.29 394.24 299.315 307.2 386.56 138.24 217.19V114.586h747.52v236.032zm87.04 425.881H0V-8.499h1024v784.998h-51.2zm0-728.576H51.2v677.274h921.6V47.923z" horiz-adv-x="1024"/><glyph glyph-name="bangongyingyong" unicode="" d="M585.114 259.686c.614 23.245-14.746 44.852-37.684 51.2-8.294 3.482-17.715 5.837-27.136 5.837h-129.74l10.035 176.435h186.368c23.552 0 43.008 18.637 43.008 42.496 0 23.245-19.456 42.496-43.008 42.496H405.299l1.229 20.992c2.97 47.719-34.202 88.474-82.534 91.444-48.333 2.867-89.6-33.792-92.57-81.51l-18.33-323.687c-1.126-25.6 8.807-48.947 25.396-65.741 11.776-18.022 31.846-30.31 55.398-30.31h168.038l-50.688-239.31c-5.939-28.569 12.39-55.91 40.653-62.258 28.263-6.452 56.627 12.185 63.079 40.14l63.692 295.117c4.71 8.704 7.066 19.251 7.066 29.696 0 2.355 0 4.71-.614 6.963zm-215.245-85.504h-197.53l-11.776 84.992c15.872 7.578 25.395 24.474 23.04 42.496l-33.075 238.592c-2.97 22.733-24.166 38.4-47.206 35.533-23.04-2.867-38.912-23.859-35.943-46.592l33.075-238.694c1.741-15.155 11.776-26.727 24.781-32.051l11.776-84.378c-13.517-2.355-23.552-13.414-23.552-27.34 0-15.156 12.39-27.342 27.75-27.342h62.465V24.576h96.665v94.208h69.632c15.36 0 28.263 12.186 28.263 27.34 0 15.258-13.005 28.058-28.365 28.058zm-68.915-245.76h-21.197V20.48h-49.562v-92.57H206.03c-43.623 0-79.053-24.985-79.053-55.91h252.416c.512 31.437-34.816 56.422-78.438 56.422zm153.292 487.322h175.719V-70.963h-44.237v-50.688h159.846v50.688h-47.206v486.707h152.166v59.392H454.246v-59.392zm493.568 341.094c-8.294 2.868-18.33-3.481-22.425-15.155l-84.89-223.539H644.096c-8.806 0-16.486-6.963-16.486-16.282 0-8.704 7.065-16.281 16.486-16.281h202.24c8.294-2.355 17.715 4.096 21.811 15.155l87.245 229.376c3.584 11.571.717 23.245-7.578 26.726zm-593.203-45.977c54.887 0 99.021 41.37 99.021 92.57 0 51.2-44.237 92.569-99.02 92.569-54.887 0-99.022-41.37-99.022-92.57-.102-51.2 44.135-92.57 99.021-92.57z" horiz-adv-x="1024"/><glyph glyph-name="xiaoxikaishishijian" unicode="" d="M0 384a512 512 0 1 1 1024 0A512 512 0 1 1 0 384zm512 512C229.478 896 0 666.42 0 384s229.478-512 512-512c282.42 0 512 229.58 512 512S794.42 896 512 896zm0-967.27C260.3-71.27 56.73 132.3 56.73 384S260.3 839.27 512 839.27 967.27 635.802 967.27 384C967.27 132.3 763.7-71.27 512-71.27zm264.397 670.31H247.706c-29.184 0-53.248-24.064-53.248-53.248V222.208c0-29.184 24.064-53.248 53.248-53.248h528.69c28.16 0 51.61 22.426 53.146 50.278V548.66c-1.536 27.853-24.883 50.381-53.145 50.381zm-26.624-45.568L550.707 377.549c-17.203-15.463-30.003-23.143-38.605-23.143-8.601 0-21.504 7.68-38.604 23.143L274.33 553.472h475.443zm34.406-313.242v-24.473l-39.424-.41H279.45l-38.708.512.103 24.371v279.86l157.9-138.24 34.305-30.925 24.883-22.323c14.54-12.903 32.665-18.842 54.067-18.842 21.504 0 39.526 6.86 54.067 18.842l24.883 22.323 34.304 30.925 158.823 138.24V240.23z" horiz-adv-x="1024"/><glyph glyph-name="xinhaokaishishijian" unicode="" d="M0 384a512 512 0 1 1 1024 0A512 512 0 1 1 0 384zm512 512C229.478 896 0 666.42 0 384s229.478-512 512-512c282.42 0 512 229.58 512 512S794.42 896 512 896zm0-967.27C260.3-71.27 56.73 132.3 56.73 384S260.3 839.168 512 839.168 967.27 635.699 967.27 384 763.7-71.27 512-71.27zm0 792.268L182.067 149.402h659.968L512 720.998zm0-102.4l241.254-417.894H270.746L512 618.598z" horiz-adv-x="1024"/><glyph glyph-name="dingshikaishishijian" unicode="" d="M0 384a512 512 0 1 1 1024 0A512 512 0 1 1 0 384zm512 512C229.478 896 0 666.42 0 384s229.478-512 512-512c282.42 0 512 229.58 512 512S794.522 896 512 896zm0-967.27C260.3-71.27 56.73 132.3 56.73 384S260.3 839.168 512 839.168s455.27-203.469 455.27-455.27C967.27 132.3 763.7-71.27 512-71.27zm0 784.69c-181.35 0-329.011-147.762-329.011-329.83 0-181.35 147.763-329.01 329.011-329.01s329.011 147.762 329.011 329.01c0 182.17-147.66 329.83-329.011 329.83zm0-606.514c-152.371 0-276.685 124.313-276.685 276.684 0 152.372 124.314 276.685 276.685 276.685S788.685 536.781 788.685 383.59c0-152.37-124.314-276.684-276.685-276.684zm113.766 290.816H520.192V555.52c0 14.848-11.674 26.624-26.624 26.624-14.848 0-26.522-11.674-26.522-26.624V394.547c0-27.34 22.63-49.971 49.972-49.971h107.827c14.848 0 26.521 11.674 27.34 26.624.103 14.746-11.57 26.522-26.419 26.522z" horiz-adv-x="1024"/><glyph glyph-name="xinhaojieshushijian" unicode="" d="M0 384a512 512 0 1 1 1024 0A512 512 0 1 1 0 384zm983.757 199.27c-25.805 60.928-62.669 115.712-109.67 162.714-47.002 47.002-101.786 83.968-162.714 109.67C648.192 882.484 581.12 896 512 896s-136.192-13.517-199.27-40.243c-60.928-25.805-115.712-62.669-162.714-109.67C103.014 699.084 66.15 644.3 40.346 583.372 13.516 520.192 0 453.12 0 384s13.517-136.192 40.243-199.27c25.805-60.928 62.669-115.712 109.67-162.714C196.916-24.986 251.7-61.85 312.628-87.654 375.808-114.484 442.88-128 512-128s136.192 13.517 199.27 40.243c60.928 25.805 115.712 62.669 162.714 109.67 47.002 47.002 83.866 101.786 109.67 162.714C1010.484 247.808 1024 314.88 1024 384s-13.517 136.192-40.243 199.27zM512-16.589c-220.877 0-400.589 179.712-400.589 400.589S291.123 784.589 512 784.589 912.589 604.877 912.589 384 732.877-16.589 512-16.589zM250.88 197.222h522.24L512 649.523l-261.12-452.3z" horiz-adv-x="1024"/><glyph glyph-name="xiaoxijieshushijian" unicode="" d="M0 384a512 512 0 1 1 1024 0A512 512 0 1 1 0 384zm983.757 199.27c-25.805 60.928-62.669 115.712-109.67 162.714-47.002 47.002-101.786 83.968-162.714 109.67C648.192 882.484 581.12 896 512 896s-136.192-13.517-199.27-40.243c-60.928-25.805-115.712-62.669-162.714-109.67C103.014 699.084 66.15 644.3 40.346 583.372 13.516 520.192 0 453.12 0 384s13.517-136.192 40.243-199.27c25.805-60.928 62.669-115.712 109.67-162.714C196.916-24.986 251.7-61.85 312.628-87.654 375.808-114.484 442.88-128 512-128s136.192 13.517 199.27 40.243c60.928 25.805 115.712 62.669 162.714 109.67 47.002 47.002 83.866 101.786 109.67 162.714C1010.484 247.808 1024 314.88 1024 384s-13.517 136.192-40.243 199.27zM512-16.589c-220.877 0-400.589 179.712-400.589 400.589S291.123 784.589 512 784.589 912.589 604.877 912.589 384 732.877-16.589 512-16.589zM776.397 599.04H247.706c-29.184 0-53.248-24.064-53.248-53.248V222.208c0-29.184 24.064-53.248 53.248-53.248h528.69c28.16 0 51.61 22.426 53.146 50.278V548.66c-1.536 27.853-24.883 50.381-53.145 50.381zm-26.624-45.568L550.707 377.549c-17.203-15.463-30.003-23.143-38.605-23.143-8.601 0-21.504 7.68-38.604 23.143L274.33 553.472h475.443zm34.406-313.242v-24.473l-39.424-.41H279.45l-38.708.512.103 24.371v279.86l157.9-138.24 34.305-30.925 24.883-22.323c14.54-12.903 32.665-18.842 54.067-18.842 21.504 0 39.526 6.86 54.067 18.842l24.883 22.323 34.304 30.925 158.823 138.24V240.23z" horiz-adv-x="1024"/><glyph glyph-name="buhuoshijianzhongjianshijian" unicode="" d="M.307 383.898c0-282.215 228.762-511.079 511.079-511.079 282.214 0 511.078 228.762 511.078 511.079 0 282.316-228.864 511.078-511.078 511.078S.307 666.214.307 383.898zM512 895.078C229.99 895.078.922 665.908.922 384S229.99-127.078 512-127.078c281.907 0 511.078 229.17 511.078 511.078S793.908 895.078 512 895.078zm0-965.53C260.813-70.451 57.549 132.814 57.549 384S260.813 838.349 512 838.349s454.451-203.06 454.451-454.451c0-251.29-203.264-454.35-454.451-454.35zm283.034 737.486C719.36 742.707 618.906 784.282 512 784.282s-207.36-41.575-283.034-117.248C153.293 591.36 111.718 490.906 111.718 384s41.575-207.36 117.248-283.034C304.64 25.293 405.094-16.282 512-16.282s207.36 41.575 283.034 117.248C870.707 176.64 912.282 277.094 912.282 384s-41.575 207.36-117.248 283.034zM512 38.604c-190.464 0-345.395 154.932-345.395 345.396S321.536 729.395 512 729.395 857.395 574.464 857.395 384 702.464 38.605 512 38.605zm0 657.716c-171.93 0-311.91-140.083-311.91-312.73 0-171.827 139.98-311.91 311.91-311.91s311.91 140.083 311.91 311.91c0 172.647-139.98 312.73-311.91 312.73zm0-574.976c-144.486 0-262.349 117.862-262.349 262.349S367.514 646.042 512 646.042s262.349-117.044 262.349-262.35c0-144.588-117.863-262.348-262.349-262.348zm107.827 275.66H519.782v149.607c0 14.131-11.161 25.19-25.19 25.19-14.029 0-25.19-11.161-25.19-25.19V393.933c0-25.907 21.504-47.411 47.41-47.411H619.11c14.03 0 25.19 11.161 25.908 25.19 0 14.131-11.06 25.293-25.19 25.293z" horiz-adv-x="1024"/><glyph glyph-name="buhuoxiaoxizhongjianshijian" unicode="" d="M.307 383.898c0-282.215 228.762-511.079 511.079-511.079 282.214 0 511.078 228.762 511.078 511.079 0 282.316-228.864 511.078-511.078 511.078S.307 666.214.307 383.898zM512 895.078C229.99 895.078.922 665.908.922 384S229.99-127.078 512-127.078c281.907 0 511.078 229.17 511.078 511.078S793.908 895.078 512 895.078zm0-965.53C260.813-70.451 57.549 132.814 57.549 384S260.813 838.349 512 838.349s454.451-203.06 454.451-454.451c0-251.29-203.264-454.35-454.451-454.35zm283.034 737.486C719.36 742.707 618.906 784.282 512 784.282s-207.36-41.575-283.034-117.248C153.293 591.36 111.718 490.906 111.718 384s41.575-207.36 117.248-283.034C304.64 25.293 405.094-16.282 512-16.282s207.36 41.575 283.034 117.248C870.707 176.64 912.282 277.094 912.282 384s-41.575 207.36-117.248 283.034zM512 38.604c-190.464 0-345.395 154.932-345.395 345.396S321.536 729.395 512 729.395 857.395 574.464 857.395 384 702.464 38.605 512 38.605zm226.304 529.409H285.798c-24.985 0-45.568-20.583-45.568-45.568v-276.89c0-24.985 20.583-45.568 45.568-45.568h452.506c24.166 0 44.134 19.251 45.466 43.008v281.907c-1.332 23.86-21.402 43.11-45.466 43.11zM715.469 529.1L545.075 378.47c-14.643-13.21-25.702-19.866-33.075-19.866-7.373 0-18.33 6.656-33.075 19.865L308.53 529.1h406.94zm29.389-268.186v-20.992l-33.792-.307H312.934l-33.177.512.102 20.787V500.43l135.168-118.272 29.389-26.42 21.3-19.046c12.492-11.059 27.954-16.179 46.284-16.179s33.792 5.837 46.285 16.18l21.299 19.046 29.389 26.419L744.858 500.43V260.915z" horiz-adv-x="1024"/><glyph glyph-name="zhongzhishijian" unicode="" d="M0 384a512 512 0 1 1 1024 0A512 512 0 1 1 0 384zm983.757 199.27c-25.805 60.928-62.669 115.712-109.67 162.714-47.002 47.002-101.786 83.968-162.714 109.67C648.192 882.484 581.12 896 512 896s-136.192-13.517-199.27-40.243c-60.928-25.805-115.712-62.669-162.714-109.67C103.014 699.084 66.15 644.3 40.346 583.372 13.516 520.192 0 453.12 0 384s13.517-136.192 40.243-199.27c25.805-60.928 62.669-115.712 109.67-162.714C196.916-24.986 251.7-61.85 312.628-87.654 375.808-114.484 442.88-128 512-128s136.192 13.517 199.27 40.243c60.928 25.805 115.712 62.669 162.714 109.67 47.002 47.002 83.866 101.786 109.67 162.714C1010.484 247.808 1024 314.88 1024 384s-13.517 136.192-40.243 199.27zM512-16.589c-220.877 0-400.589 179.712-400.589 400.589S291.123 784.589 512 784.589 912.589 604.877 912.589 384 732.877-16.589 512-16.589zm0 630.989c-127.078 0-230.4-103.322-230.4-230.4S384.922 153.6 512 153.6 742.4 256.922 742.4 384 639.078 614.4 512 614.4z" horiz-adv-x="1024"/><glyph glyph-name="paochuxinhaozhongjianshijian" unicode="" d="M.307 384C.307 101.478 229.376-127.693 512-127.693c282.522 0 511.693 229.069 511.693 511.693S794.522 895.693 512 895.693.307 666.624.307 384zM512 896C229.478 896 0 666.42 0 384s229.478-512 512-512c282.42 0 512 229.58 512 512S794.42 896 512 896zm0-967.27C260.403-71.27 56.73 132.403 56.73 384S260.403 839.168 512 839.168s455.27-203.469 455.27-455.27c0-251.7-203.673-455.168-455.27-455.168zm283.546 738.816C719.77 743.322 619.11 784.998 512 784.998c-107.11 0-207.77-41.676-283.546-117.452C152.678 591.77 111.002 491.11 111.002 384c0-107.11 41.676-207.77 117.452-283.546C304.23 24.678 404.89-16.998 512-16.998c107.11 0 207.77 41.676 283.546 117.452C871.322 176.23 912.998 276.89 912.998 384c0 107.11-41.676 207.77-117.452 283.546zM512 37.99c-190.771 0-346.01 155.24-346.01 346.01S321.23 730.01 512 730.01 858.01 574.77 858.01 384 702.77 37.99 512 37.99zm.614 663.655L231.322 214.323H794.01L512.614 701.645z" horiz-adv-x="1024"/><glyph glyph-name="paochubuchangzhongjianshijian" unicode="" d="M.307 384C.307 101.478 229.376-127.693 512-127.693c282.522 0 511.693 229.069 511.693 511.693S794.522 895.693 512 895.693.307 666.624.307 384zM512 896C229.478 896 0 666.42 0 384s229.478-512 512-512c282.42 0 512 229.58 512 512S794.42 896 512 896zm0-967.27C260.403-71.27 56.73 132.403 56.73 384S260.403 839.168 512 839.168s455.27-203.469 455.27-455.27c0-251.7-203.673-455.168-455.27-455.168zm283.546 738.816C719.77 743.322 619.11 784.998 512 784.998c-107.11 0-207.77-41.676-283.546-117.452C152.678 591.77 111.002 491.11 111.002 384c0-107.11 41.676-207.77 117.452-283.546C304.23 24.678 404.89-16.998 512-16.998c107.11 0 207.77 41.676 283.546 117.452C871.322 176.23 912.998 276.89 912.998 384c0 107.11-41.676 207.77-117.452 283.546zM512 37.99c-190.771 0-346.01 155.24-346.01 346.01S321.23 730.01 512 730.01 858.01 574.77 858.01 384 702.77 37.99 512 37.99zm-2.253 382.464v146.74L192.512 384l317.235-183.194v146.74l254.157-146.74v366.388z" horiz-adv-x="1024"/><glyph glyph-name="bianjiebuchang" unicode="" d="M.307 384C.307 101.478 229.376-127.693 512-127.693c282.522 0 511.693 229.069 511.693 511.693S794.522 895.693 512 895.693.307 666.624.307 384zM512 896C229.478 896 0 666.42 0 384s229.478-512 512-512c282.42 0 512 229.58 512 512S794.42 896 512 896zm0-967.27C260.403-71.27 56.73 132.403 56.73 384S260.403 839.168 512 839.168s455.27-203.469 455.27-455.27c0-251.7-203.673-455.168-455.27-455.168zm283.546 738.816C719.77 743.322 619.11 784.998 512 784.998c-107.11 0-207.77-41.676-283.546-117.452C152.678 591.77 111.002 491.11 111.002 384c0-107.11 41.676-207.77 117.452-283.546C304.23 24.678 404.89-16.998 512-16.998c107.11 0 207.77 41.676 283.546 117.452C871.322 176.23 912.998 276.89 912.998 384c0 107.11-41.676 207.77-117.452 283.546zM512 37.99c-190.771 0-346.01 155.24-346.01 346.01S321.23 730.01 512 730.01 858.01 574.77 858.01 384 702.77 37.99 512 37.99zm-2.253 382.464v146.74L192.512 384l317.235-183.194v146.74l254.157-146.74v366.388l-254.157-146.74zM466.33 276.173L279.45 384l186.777 107.827V276.173zm254.054 0L533.606 384l186.778 107.827V276.173z" horiz-adv-x="1024"/><glyph glyph-name="paochuxiaoxizhongjianshijian" unicode="" d="M.614 384c0-282.522 229.07-511.693 511.693-511.693C794.83-127.693 1024 101.376 1024 384S794.829 895.693 512.307 895.693.614 666.624.614 384zm511.079 511.795C229.376 895.795 0 666.42 0 384.102 0 101.888 229.376-127.59 511.693-127.59c282.214 0 511.693 229.478 511.693 511.692 0 282.317-229.479 511.693-511.693 511.693zm0-966.656C260.198-70.86 56.73 132.608 56.73 384.102s203.468 454.964 454.963 454.964c251.494 0 454.963-203.367 454.963-455.066 0-251.494-203.469-454.86-454.963-454.86zm283.34 738.407c-75.775 75.776-176.332 117.35-283.34 117.35s-207.565-41.677-283.341-117.35-117.453-176.333-117.453-283.444c0-107.008 41.575-207.564 117.35-283.34S404.583-16.588 511.59-16.588s207.565 41.676 283.341 117.35 117.35 176.332 117.35 283.34c.205 107.11-41.471 207.668-117.247 283.444zM511.694 38.298c-190.669 0-345.805 155.136-345.805 345.804s155.136 345.805 345.805 345.805 345.805-155.136 345.805-345.805S702.362 38.298 511.693 38.298zm-5.735 309.862L247.091 480.563l-.205-245.862c0-27.341 23.86-49.767 53.044-49.767h424.652c29.184 0 53.044 22.426 53.044 49.767v245.965L518.656 348.16a14.54 14.54 0 0 0-12.698 0zm6.452 46.797l265.318 138.957c-.307 27.136-24.064 49.152-53.043 49.152H300.032c-28.98 0-52.531-22.119-52.838-49.357L512.41 394.957z" horiz-adv-x="1024"/><glyph glyph-name="buhuoxinhaozhongjianshijian" unicode="" d="M0 384c0-282.522 229.069-511.693 511.693-511.693 282.521 0 511.693 229.069 511.693 511.693S794.214 895.693 511.693 895.693 0 666.726 0 384zm512.922 512c-282.522 0-512-229.58-512-512s229.478-512 512-512c282.419 0 512 229.58 512 512s-229.581 512-512 512zm0-967.27c-251.597 0-455.27 203.673-455.27 455.27s203.673 455.168 455.27 455.168 455.27-203.469 455.27-455.27c0-251.7-203.674-455.168-455.27-455.168zm283.545 738.816c-75.776 75.776-176.435 117.452-283.545 117.452-107.11 0-207.77-41.676-283.546-117.452C153.6 591.77 111.923 491.11 111.923 384c0-107.11 41.677-207.77 117.453-283.546C305.152 24.678 405.811-16.998 512.922-16.998c107.11 0 207.77 41.676 283.545 117.452C872.243 176.23 913.92 276.89 913.92 384c0 107.11-41.677 207.77-117.453 283.546zM512.922 37.99c-190.772 0-346.01 155.239-346.01 346.01s155.238 346.01 346.01 346.01S858.932 574.77 858.932 384 703.691 37.99 512.921 37.99zm0 667.341L231.732 218.42H794.01L512.922 705.331zm0-87.245L718.54 262.042H307.302l205.62 356.044z" horiz-adv-x="1024"/><glyph glyph-name="bianjiexiaoxishijian" unicode="" d="M.307 383.898c0-282.215 228.762-511.079 511.079-511.079 282.214 0 511.078 228.762 511.078 511.079 0 282.316-228.864 511.078-511.078 511.078S.307 666.214.307 383.898zM512 895.078C229.99 895.078.922 665.908.922 384S229.99-127.078 512-127.078c281.907 0 511.078 229.17 511.078 511.078S793.908 895.078 512 895.078zm0-965.53C260.813-70.451 57.549 132.814 57.549 384S260.813 838.349 512 838.349s454.451-203.06 454.451-454.451c0-251.29-203.264-454.35-454.451-454.35zm283.034 737.486C719.36 742.707 618.906 784.282 512 784.282s-207.36-41.575-283.034-117.248C153.293 591.36 111.718 490.906 111.718 384s41.575-207.36 117.248-283.034C304.64 25.293 405.094-16.282 512-16.282s207.36 41.575 283.034 117.248C870.707 176.64 912.282 277.094 912.282 384s-41.575 207.36-117.248 283.034zM512 38.604c-190.464 0-345.395 154.932-345.395 345.396S321.536 729.395 512 729.395 857.395 574.464 857.395 384 702.464 38.605 512 38.605zm226.304 529.409H285.798c-24.985 0-45.568-20.583-45.568-45.568v-276.89c0-24.985 20.583-45.568 45.568-45.568h452.506c24.166 0 44.134 19.251 45.466 43.008v281.907c-1.332 23.86-21.402 43.11-45.466 43.11zM715.469 529.1L545.075 378.47c-14.643-13.21-25.702-19.866-33.075-19.866-7.373 0-18.33 6.656-33.075 19.865L308.53 529.1h406.94zm29.389-268.186v-20.992l-33.792-.307H312.934l-33.177.512.102 20.787V500.43l135.168-118.272 29.389-26.42 21.3-19.046c12.492-11.059 27.954-16.179 46.284-16.179s33.792 5.837 46.285 16.18l21.299 19.046 29.389 26.419L744.858 500.43V260.916z" horiz-adv-x="1024"/></font>
</defs>
</svg>
