<?xml version="1.0" encoding="UTF-8"?>
<svg width="38px" height="25px" viewBox="0 0 38 25" version="1.1" xmlns="http://www.w3.org/2000/svg" xmlns:xlink="http://www.w3.org/1999/xlink">
    <!-- Generator: Sketch 52.2 (67145) - http://www.bohemiancoding.com/sketch -->
    <title>ic_b-lc_jiantou</title>
    <desc>Created with Sketch.</desc>
    <g id="181114-流程转派" stroke="none" stroke-width="1" fill="none" fill-rule="evenodd">
        <g id="流程转派入口----无流程-" transform="translate(-764.000000, -279.000000)">
            <g id="ic_b-lc_jiantou" transform="translate(783.000000, 292.000000) rotate(-180.000000) translate(-783.000000, -292.000000) translate(763.000000, 272.000000)">
                <g id="分组-3" transform="translate(0.000000, -0.000000)">
                    <rect id="矩形" fill="#000000" opacity="0" x="1.42108547e-14" y="-4.26325641e-14" width="40" height="40"></rect>
                    <path d="M36.1816406,14.5412598 L36.1669922,14.5412598 L34.5820313,14.5383301 L14.7851562,14.5354004 C14.4746094,14.4680176 14.234375,14.2160645 14.1875,13.8996582 L14.1875,9.95043945 C14.1875,9.92993164 14.1875,9.91235352 14.1845703,9.8918457 C14.1845703,9.88305664 14.1845703,9.87426758 14.1816406,9.86254883 C14.1816406,9.85375977 14.1816406,9.84204102 14.1787109,9.83325195 C14.1787109,9.8215332 14.1757812,9.80981445 14.1757812,9.7980957 C14.1757812,9.78930664 14.1728516,9.78344727 14.1728516,9.7746582 C14.1699219,9.76293945 14.1699219,9.74829102 14.1669922,9.73657227 C14.1669922,9.73071289 14.1640625,9.72485352 14.1640625,9.71606445 C14.1611328,9.7043457 14.1582031,9.68969727 14.1552734,9.67797852 C14.1552734,9.67211914 14.1523437,9.66625977 14.1523437,9.66040039 L14.1435547,9.62524414 C14.140625,9.61938477 14.140625,9.6105957 14.1376953,9.60473633 C14.1347656,9.59301758 14.1318359,9.58129883 14.1259766,9.57250977 C14.1230469,9.5637207 14.1201172,9.55786133 14.1171875,9.54907227 C14.1142578,9.5402832 14.1083984,9.52856445 14.1054688,9.51977539 L14.0966797,9.4934082 C14.09375,9.48461914 14.0878906,9.47583008 14.0849609,9.46704102 C14.0820312,9.45825195 14.0761719,9.4465332 14.0732422,9.43774414 C14.0703125,9.43188477 14.0673828,9.4230957 14.0615234,9.41723633 C14.0556641,9.40551758 14.0498047,9.39672852 14.046875,9.38500977 C14.0439453,9.37915039 14.0410156,9.37329102 14.0351562,9.36743164 C14.0292969,9.35571289 14.0234375,9.34692383 14.0175781,9.33520508 C14.0146484,9.3293457 14.0117187,9.32348633 14.0058594,9.31762695 C14,9.3059082 13.9912109,9.29711914 13.9853516,9.28540039 C13.9824219,9.27954102 13.9765625,9.27368164 13.9736328,9.26782227 C13.9677734,9.25610352 13.9589844,9.24731445 13.9501953,9.2355957 C13.9443359,9.22973633 13.9414062,9.22387695 13.9355469,9.21801758 C13.9296875,9.20922852 13.9208984,9.20043945 13.9150391,9.19165039 C13.9091797,9.18286133 13.9003906,9.17700195 13.8945312,9.16821289 C13.8886719,9.16235352 13.8828125,9.15356445 13.8769531,9.14770508 C13.8623047,9.13305664 13.8505859,9.1184082 13.8359375,9.10375977 C13.8212891,9.08911133 13.8066406,9.07739258 13.7919922,9.06274414 C13.7861328,9.05688477 13.7773437,9.05102539 13.7714844,9.04516602 C13.7626953,9.03930664 13.7568359,9.03051758 13.7480469,9.0246582 C13.7392578,9.01586914 13.7304687,9.01000977 13.7216797,9.00415039 C13.7158203,8.99829102 13.7099609,8.99536133 13.7041016,8.98950195 C13.6923828,8.98071289 13.6835937,8.97485352 13.671875,8.96606445 C13.6660156,8.96313477 13.6601562,8.95727539 13.6542969,8.9543457 C13.6425781,8.94848633 13.6337891,8.93969727 13.6220703,8.93383789 C13.6162109,8.9309082 13.6103516,8.92797852 13.6044922,8.92211914 C13.5927734,8.91625977 13.5839844,8.91040039 13.5722656,8.90454102 C13.5664062,8.90161133 13.5605469,8.89868164 13.5546875,8.89282227 C13.5429687,8.88696289 13.5341797,8.88110352 13.5224609,8.87817383 C13.5166016,8.87524414 13.5078125,8.87231445 13.5019531,8.86645508 C13.4931641,8.8605957 13.4814453,8.85766602 13.4726562,8.85473633 C13.4638672,8.85180664 13.4550781,8.84594727 13.4462891,8.84301758 L13.4199219,8.83422852 C13.4111328,8.83129883 13.3994141,8.82543945 13.390625,8.82250977 C13.3818359,8.81958008 13.3759766,8.81665039 13.3671875,8.8137207 C13.3554687,8.81079102 13.34375,8.80493164 13.3349609,8.80200195 C13.3291016,8.79907227 13.3203125,8.79907227 13.3144531,8.79614258 L13.2792969,8.78735352 C13.2734375,8.78442383 13.2675781,8.78442383 13.2587891,8.78149414 C13.2470703,8.77856445 13.2324219,8.77563477 13.2207031,8.77270508 C13.2148437,8.77270508 13.2089844,8.76977539 13.2001953,8.76977539 C13.1884766,8.7668457 13.1738281,8.76391602 13.1621094,8.76391602 C13.1533203,8.76391602 13.1474609,8.76098633 13.1386719,8.76098633 C13.1269531,8.75805664 13.1152344,8.75805664 13.1035156,8.75805664 C13.0947266,8.75805664 13.0830078,8.75512695 13.0742187,8.75512695 C13.0654297,8.75512695 13.0566406,8.75219727 13.0478516,8.75219727 C13.0097656,8.74926758 12.96875,8.74926758 12.9277344,8.75219727 C12.9189453,8.75219727 12.9101563,8.75219727 12.9013672,8.75512695 C12.8925781,8.75512695 12.8808594,8.75512695 12.8720703,8.75805664 C12.8603516,8.75805664 12.8486328,8.76098633 12.8369141,8.76098633 C12.828125,8.76098633 12.8222656,8.76391602 12.8134766,8.76391602 C12.8017578,8.7668457 12.7871094,8.7668457 12.7753906,8.76977539 C12.7695312,8.76977539 12.7636719,8.77270508 12.7548828,8.77270508 C12.7431641,8.77563477 12.7285156,8.77856445 12.7167969,8.78149414 C12.7109375,8.78442383 12.7050781,8.78442383 12.6962891,8.78735352 L12.6611328,8.79614258 C12.6552734,8.79907227 12.6464844,8.79907227 12.640625,8.80200195 C12.6289062,8.80493164 12.6171875,8.80786133 12.6083984,8.8137207 C12.5996094,8.81665039 12.59375,8.81958008 12.5849609,8.82250977 C12.5761719,8.82543945 12.5644531,8.83129883 12.5556641,8.83422852 C12.546875,8.8371582 12.5380859,8.84008789 12.5292969,8.84594727 C12.5205078,8.84887695 12.5117187,8.85473633 12.5029297,8.85766602 C12.4941406,8.8605957 12.4824219,8.86645508 12.4736328,8.86938477 C12.4677734,8.87231445 12.4589844,8.87524414 12.453125,8.88110352 C12.4414062,8.88696289 12.4326172,8.89282227 12.4208984,8.89868164 C12.4150391,8.90161133 12.4091797,8.90454102 12.4033203,8.91040039 C12.3916016,8.91625977 12.3798828,8.92211914 12.3710937,8.92797852 C12.3652344,8.9309082 12.359375,8.93383789 12.3535156,8.93969727 C12.3417969,8.94555664 12.3300781,8.9543457 12.3212891,8.96020508 C12.3154297,8.96313477 12.3095703,8.96899414 12.3037109,8.97192383 C12.2919922,8.9777832 12.2832031,8.98657227 12.2714844,8.99536133 C12.265625,9.0012207 12.2597656,9.00415039 12.2539062,9.01000977 C12.2451172,9.01586914 12.2363281,9.0246582 12.2246094,9.03051758 C12.2158203,9.03637695 12.2099609,9.04223633 12.2011719,9.05102539 C12.1953125,9.05688477 12.1865234,9.06274414 12.1806641,9.06860352 C12.1660156,9.08032227 12.1513672,9.0949707 12.1396484,9.10961914 L1.62792969,19.6154785 L1.6015625,19.6418457 C1.3671875,19.8762207 1.25,20.1838379 1.25,20.4914551 C1.25,20.7990723 1.3671875,21.1066895 1.6015625,21.3410645 L1.62792969,21.3674316 L12.1396484,31.8791504 C12.3769531,32.1164551 12.6904297,32.2336426 13.0009766,32.2307129 L13.0126953,32.2307129 C13.6748047,32.2307129 14.2138672,31.6945801 14.2138672,31.029541 L14.2138672,26.3391113 L36.5976563,26.3391113 C37.4121094,26.1721191 38.0478516,25.5041504 38.1679688,24.6750488 L38.1679688,16.3312988 C38.0625,15.326416 37.2128906,14.5412598 36.1816406,14.5412598 Z" id="路径" fill="#F0F0F0"></path>
                </g>
            </g>
        </g>
    </g>
</svg>